<?xml version="1.0" encoding="utf-8"?>
<!-- Generator: Adobe Illustrator 16.0.0, SVG Export Plug-In . SVG Version: 6.00 Build 0)  -->
<!DOCTYPE svg PUBLIC "-//W3C//DTD SVG 1.1//EN" "http://www.w3.org/Graphics/SVG/1.1/DTD/svg11.dtd">
<svg version="1.1" id="objects_1_" xmlns="http://www.w3.org/2000/svg" xmlns:xlink="http://www.w3.org/1999/xlink" x="0px" y="0px"
	 width="335.986px" height="235.19px" viewBox="0 0 335.986 235.19" enable-background="new 0 0 335.986 235.19"
	 xml:space="preserve">
<rect id="background" fill="#F6EFDE" width="335.986" height="235.19"/>
<g id="clouds">
	<path id="cloud_3_" opacity="0.6" fill="#FFFFFF" d="M185.575,97.168c0,0-7.565-16.391,6.936-22.066
		c1.889-6.303,2.515-27.739,25.215-27.739s20.809,18.914,20.809,18.914s5.039-3.152,12.609,2.523
		c5.048-6.938,27.736-16.393,40.35,3.466c5.678,0.317,19.543,3.47,19.543,24.903C296.525,97.168,185.575,97.168,185.575,97.168z"/>
	<path id="cloud_4_" opacity="0.6" fill="#FFFFFF" d="M25.198,62.081c0,0-6.814-14.765,6.248-19.876
		c1.701-5.678,2.266-24.988,22.713-24.988c20.449,0,18.745,17.037,18.745,17.037s4.539-2.839,11.358,2.273
		c4.547-6.25,24.985-14.767,36.347,3.122c5.114,0.286,17.604,3.126,17.604,22.433C125.142,62.081,25.198,62.081,25.198,62.081z"/>
	<path id="cloud" opacity="0.5" fill="#FFFFFF" d="M177.646,141.568c-1.095-15.854-14.293-28.38-30.427-28.38
		c-2.951,0-5.804,0.422-8.502,1.206c-5.58-7.208-14.311-11.848-24.131-11.848c-6.153,0-11.877,1.825-16.673,4.958
		c-6.821-5.695-15.597-9.132-25.18-9.132c-17.439,0-32.22,11.356-37.365,27.076c-9.346,0.278-17.032,7.143-18.57,16.12H177.646z"/>
	<path id="cloud_2_" fill="#FFFFFF" d="M253.018,43.255c-0.094-3.121-2.667-5.606-5.804-5.575c-0.071,0-0.143,0.003-0.217,0.007
		c-1.39-2.262-3.885-3.771-6.732-3.771c-3.503,0-6.47,2.281-7.504,5.436c-2.103,0.063-3.787,1.786-3.787,3.902H253.018z"/>
	<path id="cloud_1_" fill="#FFFFFF" d="M118.881,85.15c-0.128-4.305-3.679-7.734-8.005-7.692c-0.101,0-0.2,0.005-0.301,0.01
		c-1.916-3.121-5.359-5.202-9.29-5.202c-4.832,0-8.927,3.146-10.353,7.5c-2.901,0.087-5.227,2.462-5.227,5.384H118.881z"/>
</g>
<g id="pumpkin_1_">
	<path opacity="0.4" fill="#B5B6B9" d="M235.478,130.378c-5.39-16.391-17.71-28.093-32.236-29.04
		c-0.632-0.041-1.268-0.062-1.907-0.062c-3.138,0-9.802,0.508-12.715,1.452c-5.031-0.877-7.198-1.452-13.747-1.452
		c-6.547,0-8.713,0.576-13.752,1.452c-2.572-0.833-8.067-1.327-11.477-1.431c-0.826-0.039-1.644-0.031-2.456,0.019
		c-0.227,0.009-0.456,0.007-0.681,0.022c-14.526,0.947-26.846,12.649-32.236,29.04c-1.876,5.7-2.912,11.967-2.912,18.543
		c0,0,0,0,0,0.001c0,6.578,1.036,12.846,2.912,18.545c5.39,16.387,17.71,28.088,32.236,29.036c0.631,0.042,1.267,0.062,1.906,0.062
		c3.139,0,9.803-0.508,12.714-1.453c5.033,0.879,7.199,1.453,13.746,1.453c6.549,0,8.716-0.576,13.754-1.453
		c2.911,0.945,9.57,1.453,12.708,1.453c0.64,0,1.275-0.02,1.907-0.062c14.526-0.948,26.847-12.649,32.236-29.036
		c1.876-5.699,2.911-11.967,2.911-18.545c0-0.001,0-0.001,0-0.001C238.389,142.345,237.354,136.078,235.478,130.378z"/>
	<g id="pumpkin">
		<path fill="#EC8123" d="M232.247,148.921c0-6.576-1.037-12.843-2.912-18.543c-5.391-16.391-17.71-28.093-32.237-29.04
			c-0.631-0.041-1.267-0.062-1.905-0.062c-3.138,0-9.804,0.508-12.714,1.452c-5.033-0.877-7.199-1.452-13.751-1.452
			c-6.555,0-8.721,0.576-13.761,1.452c-2.91-0.943-9.569-1.452-12.708-1.452c-0.639,0-1.275,0.021-1.906,0.062
			c-14.526,0.947-26.847,12.649-32.237,29.04c-1.875,5.7-2.912,11.967-2.912,18.543c0,0,0,0,0,0.001l0,0
			c0,6.578,1.037,12.846,2.912,18.545c5.39,16.387,17.71,28.088,32.237,29.036c0.631,0.042,1.267,0.062,1.906,0.062
			c3.139,0,9.803-0.508,12.714-1.453c5.033,0.879,7.199,1.453,13.754,1.453c6.552,0,8.718-0.576,13.757-1.453
			c2.909,0.945,9.57,1.453,12.708,1.453c0.639,0,1.274-0.02,1.905-0.062c14.527-0.948,26.847-12.649,32.237-29.036
			C231.21,161.768,232.247,155.5,232.247,148.921L232.247,148.921C232.247,148.921,232.247,148.921,232.247,148.921z"/>
		<path fill="#DBDBE5" d="M181.965,103.095l-0.175,0.182c6.528,10.04,6.925,21.229,5.373,38.361l0.229,0.037
			C189.839,122.781,188.166,110.88,181.965,103.095z"/>
		<path fill-rule="evenodd" clip-rule="evenodd" fill="#DBDBE5" d="M181.79,195.082c28.547-11.773,33.308-55.721,26.046-74.372
			C217.51,142.202,209.229,185.483,181.79,195.082z"/>
		<path fill-rule="evenodd" clip-rule="evenodd" fill="#DBDBE5" d="M147.974,101.965c-17.341-4.445-33.424,13.116-33.339,25.869
			C116.355,114.787,130.606,99.649,147.974,101.965z"/>
		<path fill-rule="evenodd" clip-rule="evenodd" fill="#DBDBE5" d="M129.603,188c-14.021-6.25-21.008-25.512-19.649-44.023
			C110.533,167.414,118.145,182.767,129.603,188z"/>
		<path fill-rule="evenodd" clip-rule="evenodd" fill="#DBDBE5" d="M187.865,102.223c17.342-4.445,33.424,13.116,33.339,25.869
			C219.483,115.045,205.232,99.907,187.865,102.223z"/>
		<path fill-rule="evenodd" clip-rule="evenodd" fill="#DBDBE5" d="M204.534,188c14.023-6.25,21.009-25.512,19.652-44.023
			C223.604,167.414,215.995,182.767,204.534,188z"/>
		<path fill="#DBDBE5" d="M155.639,102.827c0,0-0.145,0.235-0.378,0.655c-0.235,0.417-0.548,1.028-0.888,1.779
			c-0.343,0.747-0.714,1.632-1.052,2.607c-0.178,0.483-0.333,0.997-0.486,1.517c-0.173,0.514-0.288,1.062-0.424,1.597
			c-0.269,1.077-0.445,2.182-0.602,3.224c-0.057,0.526-0.113,1.034-0.166,1.515c-0.066,0.484-0.062,0.947-0.099,1.375
			c-0.017,0.425-0.073,0.819-0.068,1.17c-0.007,0.352-0.012,0.657-0.017,0.909c-0.014,0.507-0.034,0.8-0.034,0.8
			s-0.061-0.279-0.146-0.777c-0.041-0.251-0.09-0.557-0.147-0.907c-0.07-0.351-0.087-0.752-0.119-1.19
			c-0.021-0.44-0.086-0.917-0.059-1.422c0.012-0.502,0.003-1.041,0.047-1.591c0.062-0.547,0.093-1.12,0.187-1.691
			c0.111-0.565,0.191-1.151,0.333-1.717c0.153-0.562,0.286-1.133,0.478-1.669c0.165-0.548,0.376-1.062,0.586-1.555
			c0.19-0.503,0.449-0.946,0.658-1.384c0.237-0.419,0.454-0.82,0.688-1.16c0.441-0.705,0.894-1.208,1.192-1.568
			C155.438,102.991,155.639,102.827,155.639,102.827z"/>
	</g>
</g>
<g id="witch_hat">
	<g>
		<path opacity="0.4" fill="#B5B6B9" d="M253.153,103.837c0.081,8.54-32.318,19.033-72.371,19.403
			c-40.036,0.37-72.565-9.522-72.644-18.061c-0.078-8.54,32.322-15.763,72.359-16.135
			C220.547,88.675,253.075,95.297,253.153,103.837z"/>
		<path fill="#7F5D99" d="M247.318,103.837c0.081,8.54-32.318,19.033-72.37,19.403c-40.047,0.37-72.577-9.522-72.655-18.061
			c-0.079-8.54,32.322-15.763,72.371-16.135C214.711,88.675,247.24,95.297,247.318,103.837z"/>
		<path opacity="0.4" fill="#B5B6B9" d="M179.635,12.841c-8.588,25.118-30.745,71.772-38.16,93.107
			c25.426,8.241,51.296,7.651,77.348-0.714C216.783,99.829,179.635,12.841,179.635,12.841z"/>
		<linearGradient id="SVGID_1_" gradientUnits="userSpaceOnUse" x1="137.168" y1="62.9492" x2="214.5254" y2="62.9492">
			<stop  offset="0" style="stop-color:#BB97C5"/>
			<stop  offset="0.1578" style="stop-color:#AC88BA"/>
			<stop  offset="0.4736" style="stop-color:#9371A8"/>
			<stop  offset="0.7632" style="stop-color:#84629D"/>
			<stop  offset="1" style="stop-color:#7F5D99"/>
		</linearGradient>
		<path fill="url(#SVGID_1_)" d="M175.335,13.456c-8.592,25.118-30.752,71.772-38.167,93.108
			c25.425,8.239,51.305,7.649,77.357-0.715C212.484,100.444,175.335,13.456,175.335,13.456z"/>
		<path fill="#F7CC2B" d="M140.854,96.087c-1.445,4.191-2.698,7.813-3.686,10.657c25.425,8.238,51.305,7.648,77.357-0.715
			c-0.353-0.93-1.745-4.819-3.809-10.618C187.206,102.277,163.852,102.76,140.854,96.087z"/>
	</g>
	<path fill="#FFFFFF" d="M172.042,50.119c0,0,5.404,0,5.404,5.404c0,0,0-5.404,5.405-5.404c0,0-5.405,0-5.405-5.405
		C177.446,44.714,177.446,50.119,172.042,50.119z"/>
	<path fill="#FFFFFF" d="M182.852,85.248c0,0,2.701,0,2.701,2.702c0,0,0-2.702,2.702-2.702c0,0-2.702,0-2.702-2.702
		C185.553,82.546,185.553,85.248,182.852,85.248z"/>
	<path fill="#FFFFFF" d="M224.353,101.519c0,0,2.701,0,2.701,2.703c0,0,0-2.703,2.703-2.703c0,0-2.703,0-2.703-2.701
		C227.054,98.817,227.054,101.519,224.353,101.519z"/>
	<path fill="#FFFFFF" d="M163.27,58.224c0,0,1.946,0,1.946,1.948c0,0,0-1.948,1.947-1.948c0,0-1.947,0-1.947-1.946
		C165.215,56.278,165.215,58.224,163.27,58.224z"/>
	<path fill="#FFFFFF" d="M178.201,37.097c0,0,1.945,0,1.945,1.947c0,0,0-1.947,1.946-1.947c0,0-1.946,0-1.946-1.947
		C180.146,35.149,180.146,37.097,178.201,37.097z"/>
	<path fill="#FFFFFF" d="M199.114,84.35c0,0,0.897,0.897-0.001,1.795c0,0,0.898-0.898,1.796,0c0,0-0.897-0.898,0-1.795
		C200.909,84.35,200.012,85.247,199.114,84.35z"/>
	<path fill="#FFFFFF" d="M118.797,103.119c0,0,0.897,0.897-0.001,1.795c0,0,0.898-0.898,1.796,0c0,0-0.898-0.898,0-1.795
		C120.592,103.119,119.694,104.016,118.797,103.119z"/>
	<path fill="#FFFFFF" d="M203.638,114.545c0,0,0.896,0.897-0.001,1.796c0,0,0.897-0.899,1.796,0c0,0-0.898-0.899,0-1.796
		C205.433,114.545,204.534,115.442,203.638,114.545z"/>
	<path fill="#FFFFFF" d="M190.426,91.805c0,0,0.897,0.897-0.001,1.795c0,0,0.898-0.898,1.796,0c0,0-0.897-0.898,0-1.795
		C192.221,91.805,191.323,92.702,190.426,91.805z"/>
</g>
<g id="cat">
	<path opacity="0.4" fill="#B5B6B9" d="M180.352,98.402c-0.254-0.264-0.585-0.556-0.992-0.857c-0.396-0.317-0.841-0.683-1.389-0.989
		c-0.265-0.165-0.543-0.335-0.83-0.512c-0.304-0.148-0.616-0.302-0.939-0.459c-0.632-0.348-1.363-0.555-2.099-0.832
		c-0.762-0.18-1.538-0.429-2.359-0.517c-0.441-0.085-0.891-0.126-1.342-0.155c0.016-0.305,0.047-0.606,0.047-0.916
		c0-2.968-0.741-5.774-2.054-8.27l2.054-18.564l-0.769,0.57l0.387-0.57c0,0-7.924,3.237-13.771,8.918
		c-1.873-0.54-3.859-0.843-5.92-0.843c-2.422,0-4.732,0.424-6.882,1.158c-0.005-0.005-0.009-0.01-0.015-0.015
		c-5.87-5.872-14.086-9.218-14.086-9.218l2.161,19.528c-0.236,0.722-0.396,1.458-0.492,2.205c-0.491,1.62-0.759,3.333-0.759,5.101
		c0,0.367,0.021,0.728,0.042,1.088c-0.788,0.097-1.537,0.327-2.27,0.499c-0.735,0.277-1.469,0.486-2.103,0.832
		c-0.323,0.158-0.636,0.311-0.939,0.459c-0.288,0.176-0.566,0.347-0.833,0.512c-0.547,0.306-0.993,0.672-1.39,0.99
		c-0.409,0.304-0.739,0.593-0.99,0.856c-0.521,0.504-0.818,0.792-0.818,0.792s0.316-0.267,0.87-0.735
		c0.268-0.245,0.618-0.512,1.041-0.784c0.413-0.286,0.871-0.611,1.42-0.899c0.268-0.151,0.548-0.308,0.837-0.471
		c0.304-0.134,0.617-0.273,0.94-0.415c0.631-0.317,1.361-0.485,2.079-0.755c0.708-0.155,1.429-0.365,2.184-0.453
		c0.005,0.054,0.015,0.106,0.019,0.16c-0.464,0.163-0.92,0.322-1.324,0.544c-0.283,0.138-0.559,0.272-0.824,0.402
		c-0.252,0.156-0.496,0.306-0.73,0.449c-0.479,0.268-0.871,0.59-1.219,0.868c-0.358,0.267-0.647,0.521-0.868,0.751
		c-0.457,0.442-0.718,0.695-0.718,0.695s0.278-0.234,0.763-0.645c0.235-0.216,0.542-0.45,0.912-0.688
		c0.362-0.25,0.765-0.536,1.246-0.787c0.235-0.133,0.479-0.271,0.733-0.414c0.266-0.118,0.541-0.239,0.825-0.364
		c0.383-0.192,0.81-0.328,1.245-0.468c0.339,2.946,1.4,5.692,3.027,8.067c-0.967,1.02-3.534,3.722-5.625,5.811
		c0,0-43.375,5.375-43.375,59.277v18.086c-4.491-1.252-8.63-3.515-12.39-6.872c-6.778-6.051-10.56-13.644-11.348-22.795
		c-0.547-6.348,0.457-12.219,2.999-17.61c3.013-6.47,7.416-9.956,13.209-10.453c0.934-0.083,2.238,0.071,3.917,0.438
		c1.681,0.375,2.937,0.526,3.776,0.453c2.893-0.249,4.215-1.864,3.957-4.85c-0.338-3.924-4.477-5.547-12.412-4.862
		c-8.4,0.722-14.878,5.232-19.433,13.532c-4.082,7.207-5.742,15.254-4.978,24.127c1.055,12.229,6.094,22.098,15.11,29.595
		c5.299,4.408,11.165,7.259,17.592,8.582l3.914,0.611c3.036,0.322,53.118,0,53.118,0s4.912,0.369,5.669-2.806
		c0.141-0.274,0.19-1.179,0.105-1.486c0-3.585-5.774-3.149-5.774-3.149h-4.729c0,0,4.281-3.769,5.777-8.924l4.727,7.875
		c0,0,3.688,6.885,4.723,7.877c0.658,0.627,2.82,0.912,4.847,0.748c0.03,0.007,0.243,0.021,0.066-0.004
		c4.202,0,6.328-2.453,6.328-5.531c0-3.054-2.445-5.527-5.479-5.588c-0.312-0.086-0.509-0.13-0.509-0.13l-1.577-36.234
		c0,0,12.602-19.424,9.453-43.058c0,0,0.041-0.043,0.109-0.123c2.876-2.955,4.751-6.775,5.141-10.991
		c0.271,0.064,0.541,0.133,0.807,0.192c0.629,0.237,1.269,0.385,1.821,0.663c0.282,0.125,0.557,0.246,0.822,0.364
		c0.253,0.143,0.498,0.281,0.732,0.414c0.479,0.251,0.882,0.539,1.243,0.789c0.373,0.239,0.678,0.472,0.91,0.687
		c0.486,0.41,0.763,0.644,0.763,0.644s-0.26-0.253-0.717-0.695c-0.221-0.231-0.51-0.486-0.867-0.752
		c-0.347-0.278-0.735-0.599-1.214-0.867c-0.234-0.144-0.479-0.293-0.73-0.45c-0.264-0.129-0.54-0.264-0.822-0.402
		c-0.555-0.305-1.197-0.486-1.842-0.73c-0.09-0.021-0.183-0.046-0.273-0.069c0.228,0.021,0.457,0.033,0.682,0.073
		c0.803,0.076,1.562,0.31,2.311,0.475c0.715,0.27,1.443,0.438,2.075,0.756c0.321,0.142,0.635,0.28,0.938,0.414
		c0.289,0.163,0.567,0.32,0.835,0.471c0.548,0.288,1.008,0.615,1.422,0.9c0.424,0.272,0.772,0.539,1.04,0.783
		c0.554,0.467,0.869,0.734,0.869,0.734S180.871,98.907,180.352,98.402z"/>
	<g>
		<g>
			<path fill="#0E2132" d="M174.516,98.402c-0.253-0.264-0.583-0.556-0.99-0.857c-0.396-0.317-0.842-0.683-1.39-0.989
				c-0.266-0.165-0.544-0.335-0.831-0.512c-0.304-0.148-0.618-0.302-0.94-0.459c-0.632-0.348-1.366-0.555-2.101-0.832
				c-0.763-0.18-1.541-0.429-2.364-0.517c-0.44-0.085-0.889-0.126-1.341-0.155c0.016-0.305,0.046-0.606,0.046-0.916
				c0-2.968-0.743-5.774-2.056-8.27l2.056-18.564l-0.769,0.57l0.386-0.57c0,0-7.925,3.237-13.772,8.918
				c-1.873-0.54-3.859-0.843-5.92-0.843c-2.422,0-4.731,0.424-6.881,1.158c-0.006-0.005-0.01-0.01-0.015-0.015
				c-5.871-5.872-14.087-9.218-14.087-9.218l2.161,19.528c-0.236,0.722-0.396,1.458-0.492,2.205
				c-0.492,1.62-0.759,3.333-0.759,5.101c0,0.367,0.02,0.728,0.042,1.088c-0.787,0.097-1.537,0.327-2.271,0.499
				c-0.735,0.277-1.469,0.486-2.102,0.832c-0.323,0.158-0.636,0.311-0.94,0.459c-0.288,0.176-0.566,0.347-0.833,0.512
				c-0.547,0.306-0.993,0.672-1.39,0.99c-0.408,0.304-0.738,0.593-0.99,0.856c-0.521,0.504-0.818,0.792-0.818,0.792
				s0.317-0.267,0.87-0.735c0.269-0.245,0.619-0.512,1.041-0.784c0.414-0.286,0.872-0.611,1.42-0.899
				c0.268-0.151,0.548-0.308,0.837-0.471c0.303-0.134,0.617-0.273,0.939-0.415c0.632-0.317,1.362-0.485,2.079-0.755
				c0.708-0.155,1.429-0.365,2.185-0.453c0.004,0.054,0.013,0.106,0.018,0.16c-0.464,0.163-0.919,0.322-1.325,0.544
				c-0.282,0.138-0.558,0.272-0.824,0.402c-0.252,0.156-0.496,0.306-0.73,0.449c-0.479,0.268-0.871,0.59-1.219,0.868
				c-0.357,0.267-0.646,0.521-0.867,0.751c-0.458,0.442-0.718,0.695-0.718,0.695s0.277-0.234,0.763-0.645
				c0.235-0.216,0.542-0.45,0.912-0.688c0.362-0.25,0.765-0.536,1.246-0.787c0.235-0.133,0.48-0.271,0.733-0.414
				c0.267-0.118,0.542-0.239,0.824-0.364c0.383-0.192,0.811-0.328,1.245-0.468c0.34,2.946,1.401,5.692,3.028,8.067
				c-0.967,1.02-3.534,3.722-5.625,5.811c0,0-43.375,5.375-43.375,59.277v18.086c-4.49-1.252-8.63-3.515-12.39-6.872
				c-6.778-6.051-10.56-13.644-11.348-22.795c-0.547-6.348,0.457-12.219,2.999-17.61c3.014-6.47,7.417-9.956,13.209-10.453
				c0.934-0.083,2.239,0.071,3.918,0.438c1.681,0.375,2.937,0.526,3.775,0.453c2.894-0.249,4.215-1.864,3.957-4.85
				c-0.338-3.924-4.477-5.547-12.411-4.862c-8.4,0.722-14.879,5.232-19.434,13.532c-4.08,7.207-5.741,15.254-4.978,24.127
				c1.054,12.229,6.094,22.098,15.111,29.595c5.298,4.408,11.166,7.259,17.591,8.582l3.914,0.611c3.036,0.322,53.119,0,53.119,0
				s4.911,0.369,5.669-2.806c0.141-0.274,0.19-1.179,0.104-1.486c0-3.585-5.773-3.149-5.773-3.149h-4.73
				c0,0,4.281-3.769,5.778-8.924l4.726,7.875c0,0,3.688,6.885,4.723,7.877c0.658,0.627,2.821,0.912,4.847,0.748
				c0.031,0.007,0.243,0.021,0.066-0.004c4.202,0,6.328-2.453,6.328-5.531c0-3.054-2.445-5.527-5.479-5.588
				c-0.312-0.086-0.509-0.13-0.509-0.13l-1.578-36.234c0,0,12.604-19.424,9.453-43.058c0,0,0.042-0.043,0.109-0.123
				c2.877-2.955,4.754-6.775,5.143-10.991c0.272,0.064,0.542,0.133,0.808,0.192c0.628,0.237,1.268,0.385,1.823,0.663
				c0.282,0.125,0.558,0.246,0.824,0.364c0.253,0.143,0.499,0.281,0.733,0.414c0.48,0.251,0.884,0.539,1.245,0.789
				c0.371,0.239,0.677,0.472,0.911,0.687c0.485,0.41,0.763,0.644,0.763,0.644s-0.261-0.253-0.718-0.695
				c-0.222-0.231-0.512-0.486-0.868-0.752c-0.347-0.278-0.736-0.599-1.215-0.867c-0.235-0.144-0.478-0.293-0.73-0.45
				c-0.266-0.129-0.542-0.264-0.825-0.402c-0.554-0.305-1.199-0.486-1.843-0.73c-0.09-0.021-0.183-0.046-0.274-0.069
				c0.228,0.021,0.458,0.033,0.682,0.073c0.804,0.076,1.565,0.31,2.313,0.475c0.717,0.27,1.447,0.438,2.078,0.756
				c0.322,0.142,0.636,0.28,0.939,0.414c0.289,0.163,0.567,0.32,0.836,0.471c0.548,0.288,1.008,0.615,1.422,0.9
				c0.424,0.272,0.772,0.539,1.038,0.783c0.555,0.467,0.872,0.734,0.872,0.734S175.037,98.907,174.516,98.402z"/>
			<g>
				
					<linearGradient id="SVGID_2_" gradientUnits="userSpaceOnUse" x1="132.3022" y1="90.9668" x2="139.4385" y2="90.9668" gradientTransform="matrix(0.9999 0.0048 0.0048 0.8229 -0.1456 14.5346)">
					<stop  offset="0" style="stop-color:#F7CC2B"/>
					<stop  offset="0.0835" style="stop-color:#F7D040"/>
					<stop  offset="0.3133" style="stop-color:#F7D976"/>
					<stop  offset="0.5277" style="stop-color:#F7E0A0"/>
					<stop  offset="0.7203" style="stop-color:#F7E6BF"/>
					<stop  offset="0.8842" style="stop-color:#F7E9D1"/>
					<stop  offset="1" style="stop-color:#F7EAD8"/>
				</linearGradient>
				<path fill="url(#SVGID_2_)" d="M139.715,90.139c-0.044,1.468-1.671,2.614-3.64,2.562c-1.971-0.054-3.533-1.286-3.495-2.755
					c0.04-1.466,1.667-2.613,3.637-2.561C138.187,87.439,139.753,88.673,139.715,90.139z"/>
				<path fill="#262732" d="M136.897,90.064c-0.023,0.945-0.382,1.704-0.796,1.694c-0.415-0.013-0.729-0.789-0.705-1.737
					c0.025-0.947,0.381-1.701,0.795-1.694C136.61,88.336,136.923,89.116,136.897,90.064z"/>
				<path opacity="0.7" fill="#FFFFFF" d="M139.079,89.013c-0.019,0.667-0.692,1.188-1.5,1.167c-0.81-0.029-1.456-0.583-1.436-1.25
					c0.018-0.666,0.686-1.187,1.5-1.166C138.451,87.784,139.097,88.341,139.079,89.013z"/>
			</g>
			<g>
				
					<linearGradient id="SVGID_3_" gradientUnits="userSpaceOnUse" x1="149.501" y1="90.8667" x2="156.6367" y2="90.8667" gradientTransform="matrix(0.9999 0.0048 0.0048 0.8229 -0.1456 14.5346)">
					<stop  offset="0" style="stop-color:#F7CC2B"/>
					<stop  offset="0.0835" style="stop-color:#F7D040"/>
					<stop  offset="0.3133" style="stop-color:#F7D976"/>
					<stop  offset="0.5277" style="stop-color:#F7E0A0"/>
					<stop  offset="0.7203" style="stop-color:#F7E6BF"/>
					<stop  offset="0.8842" style="stop-color:#F7E9D1"/>
					<stop  offset="1" style="stop-color:#F7EAD8"/>
				</linearGradient>
				<path fill="url(#SVGID_3_)" d="M156.911,90.139c-0.043,1.468-1.671,2.614-3.641,2.562c-1.97-0.054-3.532-1.286-3.494-2.755
					c0.039-1.466,1.667-2.613,3.638-2.561C155.383,87.439,156.949,88.673,156.911,90.139z"/>
				<path fill="#262732" d="M154.093,90.064c-0.023,0.945-0.383,1.704-0.796,1.694c-0.414-0.013-0.729-0.789-0.704-1.737
					c0.026-0.947,0.381-1.701,0.795-1.694C153.806,88.336,154.119,89.116,154.093,90.064z"/>
				<path opacity="0.7" fill="#FFFFFF" d="M156.275,89.013c-0.019,0.667-0.693,1.188-1.501,1.167
					c-0.809-0.029-1.455-0.583-1.435-1.25c0.017-0.666,0.686-1.187,1.499-1.166C155.647,87.784,156.294,88.341,156.275,89.013z"/>
			</g>
		</g>
		<path fill="#B5B6B9" d="M146.589,95.153c0,0-0.004-0.017-0.011-0.042c-0.007-0.038-0.016-0.074-0.032-0.104
			c-0.007-0.016-0.017-0.028-0.027-0.046c-0.038-0.05-0.084-0.087-0.132-0.119c-0.201-0.181-0.597-0.374-1.399-0.374
			c-0.99,0-1.366,0.292-1.511,0.495c-0.003,0.004-0.007,0.005-0.012,0.009c-0.02,0.027-0.035,0.05-0.045,0.07
			c-0.004,0.009-0.011,0.016-0.015,0.025c-0.003,0.012-0.006,0.018-0.007,0.02c-0.002,0.008-0.001,0.021-0.002,0.031
			c-0.006,0.021-0.009,0.034-0.009,0.034l0.005,0.002c-0.049,0.656,1.262,2.496,1.608,2.496c0.35-0.002,1.656-1.771,1.585-2.497
			L146.589,95.153z"/>
	</g>
</g>
<g id="broom">
	<g opacity="0.4">
		<path fill="#B5B6B9" d="M290.174,188.263l-16.887-42.605h-0.013c0.9-0.202,1.572-1.003,1.572-1.966
			c0-1.114-0.899-2.017-2.016-2.017h-0.47l8.123-13.498c0,0-0.878-4.097-11.59-4.817c0.019,0.001,0.038,0.002,0.057,0.003V18.854
			c0-2.302-1.454-4.168-3.249-4.168c-1.792,0-3.247,1.866-3.247,4.168v104.494c0.006,0,0.013,0,0.018-0.001
			c-10.896,0.685-11.788,4.83-11.788,4.83l8.123,13.498h-0.269c-1.114,0-2.017,0.902-2.017,2.017c0,0.963,0.675,1.764,1.574,1.966
			h-0.006l-17.096,42.605c0,0,1.73,8.105,24.589,8.132C288.442,196.368,290.174,188.263,290.174,188.263z M267.204,123.278
			c0.095,0.003,0.189,0.006,0.282,0.009C267.394,123.284,267.299,123.281,267.204,123.278z M265.649,123.251
			c-0.019,0-0.035,0.001-0.052,0.001c-0.004,0-0.008,0-0.012,0c-0.006,0-0.011,0-0.015,0c-0.016,0-0.033-0.001-0.052-0.001
			c0.023,0,0.043,0.001,0.066,0.001C265.606,123.252,265.627,123.251,265.649,123.251z M264.025,123.276
			c-0.055,0.002-0.108,0.004-0.162,0.005C263.917,123.28,263.971,123.278,264.025,123.276z"/>
		<path fill="#B5B6B9" d="M265.69,196.396c-0.037,0-0.07-0.001-0.106-0.001s-0.07,0.001-0.105,0.001H265.69z"/>
	</g>
	<g>
		<polygon fill="#FFFFFF" points="267.191,145.792 267.025,145.964 266.91,145.656 267.191,145.792 		"/>
		<linearGradient id="SVGID_4_" gradientUnits="userSpaceOnUse" x1="251.6094" y1="143.6914" x2="269.9326" y2="143.6914">
			<stop  offset="0" style="stop-color:#5C5C5D"/>
			<stop  offset="1" style="stop-color:#1B1C1B"/>
		</linearGradient>
		<path fill="url(#SVGID_4_)" d="M269.933,143.691c0,1.115-0.898,2.018-2.016,2.018h-14.292c-1.113,0-2.016-0.902-2.016-2.018l0,0
			c0-1.114,0.902-2.017,2.016-2.017h14.292C269.034,141.675,269.933,142.577,269.933,143.691L269.933,143.691z"/>
		<linearGradient id="SVGID_5_" gradientUnits="userSpaceOnUse" x1="245.7705" y1="132.4629" x2="275.5713" y2="132.4629">
			<stop  offset="0" style="stop-color:#F7CC2B"/>
			<stop  offset="0.1821" style="stop-color:#F4B829"/>
			<stop  offset="0.5146" style="stop-color:#F09A26"/>
			<stop  offset="0.799" style="stop-color:#ED8824"/>
			<stop  offset="1" style="stop-color:#EC8123"/>
		</linearGradient>
		<path fill="url(#SVGID_5_)" d="M260.606,123.251c13.914,0,14.965,4.926,14.965,4.926l-8.124,13.498h-13.553l-8.124-13.498
			c0,0,1.051-4.926,14.965-4.926"/>
		<linearGradient id="SVGID_6_" gradientUnits="userSpaceOnUse" x1="257.541" y1="69.0244" x2="264.0381" y2="69.0244">
			<stop  offset="0" style="stop-color:#5C5C5D"/>
			<stop  offset="1" style="stop-color:#1B1C1B"/>
		</linearGradient>
		<path fill="url(#SVGID_6_)" d="M260.671,123.252c-0.021,0-0.043-0.001-0.064-0.001h0.129
			C260.714,123.251,260.692,123.252,260.671,123.252c1.221,0.001,2.337,0.04,3.367,0.11V18.854c0-2.302-1.454-4.168-3.25-4.168
			c-1.792,0-3.247,1.866-3.247,4.168v104.494C258.506,123.287,259.544,123.253,260.671,123.252z"/>
		
			<linearGradient id="SVGID_7_" gradientUnits="userSpaceOnUse" x1="216.293" y1="146.7627" x2="265.4727" y2="146.7627" gradientTransform="matrix(-1 0 0 -1 501.5527 317.7891)">
			<stop  offset="0" style="stop-color:#EC8123"/>
			<stop  offset="0.201" style="stop-color:#ED8824"/>
			<stop  offset="0.4854" style="stop-color:#F09A26"/>
			<stop  offset="0.8179" style="stop-color:#F4B829"/>
			<stop  offset="1" style="stop-color:#F7CC2B"/>
		</linearGradient>
		<path fill="url(#SVGID_7_)" d="M260.776,196.396c-22.962,0-24.696-8.133-24.696-8.133l17.098-42.605h15.195l16.887,42.605
			c0,0-1.733,8.133-24.695,8.133"/>
	</g>
</g>
<g id="text_1_">
	<path fill="#0E2132" d="M112.105,206.302h-1.791c-0.079,0-0.14,0.038-0.159,0.079l-4.099,12.992c0,0.06,0.02,0.081,0.119,0.081
		h1.771c0.06,0-0.1,0.477-0.14,0.477h-6.03c-0.039,0,0.101-0.477,0.14-0.477h1.493c0.079,0,0.14-0.021,0.158-0.081l2.05-6.546
		h-4.695l-2.069,6.546c-0.02,0.06,0.02,0.081,0.1,0.081h1.492c0.04,0-0.119,0.477-0.159,0.477h-6.029
		c-0.04,0,0.12-0.477,0.159-0.477h1.791c0.08,0,0.119-0.021,0.14-0.081l4.099-12.992c0.02-0.041-0.02-0.079-0.1-0.079h-1.791
		c-0.039,0,0.1-0.479,0.159-0.479h6.029c0.039,0-0.119,0.479-0.159,0.479h-1.492c-0.08,0-0.119,0.038-0.14,0.079l-1.89,5.969h4.716
		l1.869-5.969c0.021-0.041,0-0.079-0.099-0.079h-1.473c-0.039,0,0.1-0.479,0.14-0.479h6.028
		C112.284,205.823,112.146,206.302,112.105,206.302z"/>
	<path fill="#0E2132" d="M116.893,218.479c-0.119,0.417-0.02,0.736,0.358,0.736c0.656,0,1.254-0.637,1.612-1.294l0.477,0.179
		c-0.637,1.273-1.811,2.01-2.705,2.01c-1.056,0-1.752-0.695-1.553-1.631c-0.577,1.054-1.312,1.631-2.507,1.631
		c-1.95,0-2.627-1.611-2.627-3.184c0-2.547,2.408-5.651,5.472-5.651c0.637,0,1.354,0.359,1.513,0.996l0.438-0.756l1.831-0.359
		L116.893,218.479z M115.42,211.753c-0.537,0-0.855,0.158-1.332,0.497c-1.453,1.115-2.309,4.1-2.309,5.771
		c0,1.035,0.378,1.512,1.154,1.512c1.015,0,1.771-0.874,2.805-3.481l0.976-3.024C116.635,212.23,116.117,211.753,115.42,211.753z"/>
	<path fill="#0E2132" d="M124.11,220.109c-0.796,0-1.432-0.317-1.69-0.736l-2.109,6.646h-1.931l4.119-12.974
		c0.18-0.536-0.039-0.915-0.418-0.915c-0.417,0-0.716,0.278-1.114,1.074l-0.458-0.179c0.439-0.975,1.354-1.752,2.429-1.752
		c0.975,0,1.69,0.796,1.273,2.249c0.677-1.253,1.671-2.249,2.665-2.249c1.931,0,2.627,1.553,2.627,3.124
		C129.503,216.967,126.917,220.109,124.11,220.109z M126.598,211.852c-1.253,0-2.428,2.469-3.184,4.378l-0.756,2.447
		c0.22,0.717,0.736,0.956,1.593,0.956c0.518,0,0.835-0.239,1.214-0.537c1.272-1.154,2.208-4.099,2.208-5.771
		C127.673,212.291,127.375,211.852,126.598,211.852z"/>
	<path fill="#0E2132" d="M134.77,220.109c-0.796,0-1.432-0.317-1.69-0.736l-2.108,6.646h-1.932l4.119-12.974
		c0.18-0.536-0.039-0.915-0.418-0.915c-0.417,0-0.716,0.278-1.113,1.074l-0.458-0.179c0.438-0.975,1.353-1.752,2.428-1.752
		c0.975,0,1.69,0.796,1.272,2.249c0.678-1.253,1.672-2.249,2.667-2.249c1.93,0,2.626,1.553,2.626,3.124
		C140.162,216.967,137.576,220.109,134.77,220.109z M137.257,211.852c-1.252,0-2.428,2.469-3.184,4.378l-0.756,2.447
		c0.22,0.717,0.736,0.956,1.593,0.956c0.518,0,0.835-0.239,1.214-0.537c1.273-1.154,2.208-4.099,2.208-5.771
		C138.332,212.291,138.034,211.852,137.257,211.852z"/>
	<path fill="#0E2132" d="M150.284,212.609c-1.731,0.537-2.189,1.452-4.397,6.805c-1.87,4.595-2.864,6.765-5.213,6.765
		c-1.154,0-2.108-0.796-2.108-1.87c0-0.736,0.477-1.194,1.055-1.194c0.637,0,0.895,0.358,0.895,0.796
		c0,0.479-0.398,0.916-0.398,1.234c0,0.457,0.259,0.558,0.677,0.558c1.851,0,2.707-2.011,4.219-5.573l-0.756-4.457
		c-0.518-2.805-1.035-3.043-1.553-3.043c-0.339,0-0.596,0.278-0.935,0.835l-0.358-0.299c0.656-1.233,1.473-1.891,2.428-1.891
		c1.014,0,1.513,0.996,2.009,3.403l0.479,2.387c1.631-3.958,2.826-5.79,4.078-5.79c0.438,0,0.597,0.22,0.597,0.559
		C151,212.291,150.663,212.47,150.284,212.609z"/>
	<path fill="#0E2132" d="M171.026,206.302h-1.79c-0.079,0-0.139,0.038-0.159,0.079l-4.096,12.992c0,0.06,0.02,0.081,0.12,0.081
		h1.768c0.059,0-0.099,0.477-0.139,0.477h-6.027c-0.04,0,0.099-0.477,0.139-0.477h1.493c0.079,0,0.139-0.021,0.159-0.081
		l2.049-6.546h-4.695l-2.069,6.546c-0.02,0.06,0.02,0.081,0.1,0.081h1.493c0.038,0-0.12,0.477-0.16,0.477h-6.028
		c-0.041,0,0.119-0.477,0.159-0.477h1.79c0.08,0,0.119-0.021,0.14-0.081l4.1-12.992c0.019-0.041-0.021-0.079-0.101-0.079h-1.79
		c-0.041,0,0.099-0.479,0.159-0.479h6.029c0.04,0-0.12,0.479-0.16,0.479h-1.493c-0.079,0-0.119,0.038-0.139,0.079l-1.891,5.969
		h4.717l1.867-5.969c0.02-0.041,0-0.079-0.1-0.079h-1.47c-0.04,0,0.101-0.479,0.139-0.479h6.027
		C171.206,205.823,171.067,206.302,171.026,206.302z"/>
	<path fill="#0E2132" d="M175.811,218.479c-0.12,0.417-0.019,0.736,0.357,0.736c0.657,0,1.255-0.637,1.613-1.294l0.478,0.179
		c-0.637,1.273-1.812,2.01-2.707,2.01c-1.054,0-1.75-0.695-1.55-1.631c-0.576,1.054-1.312,1.631-2.506,1.631
		c-1.949,0-2.626-1.611-2.626-3.184c0-2.547,2.407-5.651,5.468-5.651c0.638,0,1.353,0.359,1.514,0.996l0.437-0.756l1.832-0.359
		L175.811,218.479z M174.338,211.753c-0.536,0-0.854,0.158-1.33,0.497c-1.453,1.115-2.308,4.1-2.308,5.771
		c0,1.035,0.379,1.512,1.154,1.512c1.015,0,1.769-0.874,2.802-3.481l0.977-3.024C175.552,212.23,175.035,211.753,174.338,211.753z"
		/>
	<path fill="#0E2132" d="M181.277,218.52c-0.139,0.457,0.019,0.715,0.378,0.715c0.655,0,1.193-0.558,1.591-1.293l0.498,0.179
		c-0.736,1.372-1.851,1.989-2.847,1.989c-1.252,0-1.729-0.954-1.233-2.546l3.683-11.7c0.019-0.04-0.022-0.06-0.101-0.06l-1.113,0.02
		c-0.041,0,0.118-0.478,0.159-0.478l3.104-0.079c0.04,0,0.081,0.02,0.04,0.039L181.277,218.52z"/>
	<path fill="#0E2132" d="M186.964,218.52c-0.139,0.457,0.02,0.715,0.379,0.715c0.655,0,1.192-0.558,1.592-1.293l0.498,0.179
		c-0.737,1.372-1.851,1.989-2.847,1.989c-1.253,0-1.73-0.954-1.234-2.546l3.682-11.7c0.02-0.04-0.02-0.06-0.099-0.06l-1.114,0.02
		c-0.041,0,0.119-0.478,0.159-0.478l3.104-0.079c0.039,0,0.08,0.02,0.039,0.039L186.964,218.52z"/>
	<path fill="#0E2132" d="M193.805,220.109c-1.79,0-3.124-1.353-3.124-3.322c0-2.866,2.409-5.492,5.076-5.492
		c1.79,0,3.102,1.374,3.102,3.344C198.858,217.463,196.472,220.109,193.805,220.109z M195.716,211.772
		c-0.975,0-1.553,0.458-2.029,1.314c-0.438,0.775-1.273,3.799-1.273,4.854c0,0.974,0.279,1.711,1.433,1.711
		c0.914,0,1.512-0.458,2.009-1.313c0.438-0.796,1.273-3.8,1.273-4.854C197.128,212.528,196.83,211.772,195.716,211.772z"/>
	<path fill="#0E2132" d="M207.868,220.109c-1.474,0-2.547-0.875-2.208-2.428c-0.738,1.334-2.33,2.428-3.463,2.428
		c-0.897,0-1.592-0.457-1.592-1.631c0-2.03,1.77-4.576,1.77-5.75c0-0.438-0.139-0.598-0.457-0.598c-0.377,0-0.757,0.339-1.094,1.074
		l-0.478-0.159c0.517-1.114,1.353-1.751,2.388-1.751c0.935,0,1.353,0.578,1.353,1.473c0,1.611-1.611,3.662-1.611,5.451
		c0,0.578,0.317,0.896,0.795,0.896c0.855,0,1.931-1.154,2.847-3.084l1.371-4.557l1.971-0.1l-1.91,6.307
		c-0.397,1.136-0.061,1.712,0.816,1.712c1.513,0,3.521-2.349,3.521-4.418c0-1.333-0.217-1.591-0.217-2.546
		c0-0.617,0.258-1.135,0.794-1.135c0.777,0,1.096,0.656,1.096,1.394C213.559,216.011,210.335,220.109,207.868,220.109z"/>
	<path fill="#0E2132" d="M217.469,215.832h-0.637c-0.237,0.755-0.376,1.393-0.376,2.109c0,0.974,0.298,1.711,1.453,1.711
		c1.332,0,2.187-0.656,3.042-1.612l0.279,0.339c-0.935,1.094-2.01,1.73-3.381,1.73c-1.791,0-3.105-1.353-3.105-3.322
		c0-2.866,2.388-5.492,5.053-5.492c1.673,0,2.368,0.896,2.368,1.792C222.165,214.658,220.314,215.832,217.469,215.832z
		 M219.679,211.772c-1.492,0-2.108,1.374-2.727,3.582h0.637c2.469,0,2.965-1.293,2.965-2.606
		C220.554,212.07,220.276,211.772,219.679,211.772z"/>
	<path fill="#0E2132" d="M225.961,215.832h-0.637c-0.238,0.755-0.377,1.393-0.377,2.109c0,0.974,0.298,1.711,1.451,1.711
		c1.334,0,2.188-0.656,3.044-1.612l0.279,0.339c-0.935,1.094-2.01,1.73-3.381,1.73c-1.793,0-3.105-1.353-3.105-3.322
		c0-2.866,2.388-5.492,5.054-5.492c1.672,0,2.367,0.896,2.367,1.792C230.656,214.658,228.806,215.832,225.961,215.832z
		 M228.169,211.772c-1.493,0-2.107,1.374-2.726,3.582h0.637c2.469,0,2.965-1.293,2.965-2.606
		C229.045,212.07,228.768,211.772,228.169,211.772z"/>
	<path fill="#0E2132" d="M238.909,220.109c-1.073,0-1.631-0.655-1.631-1.472c0-1.611,1.612-3.481,1.612-5.294
		c0-0.477-0.279-0.834-0.757-0.834c-0.896,0-1.95,1.094-3.265,3.402l-1.273,4.019h-1.91l2.17-6.865
		c0.179-0.556-0.02-0.935-0.417-0.935c-0.42,0-0.736,0.299-1.116,1.074l-0.457-0.159c0.537-1.173,1.553-1.751,2.428-1.751
		c1.174,0,1.771,0.976,1.056,3.065c1.252-2.229,2.804-3.065,3.919-3.065c0.814,0,1.531,0.518,1.531,1.651
		c0,1.91-1.73,4.338-1.73,5.513c0,0.456,0.18,0.775,0.616,0.775c0.598,0,1.057-0.357,1.593-1.293l0.458,0.179
		C241.058,219.492,239.844,220.109,238.909,220.109z"/>
</g>
<g id="bats">
	<g opacity="0.4">
		<path id="bat_6_" fill="#B5B6B9" d="M236.709,16.905c-0.761,0.408-3.215,2.823-5.604,5.716c-0.56,0.451-1.264,0.805-2.062,1.055
			c0.084-0.287,0.13-0.591,0.13-0.907c0-0.705-0.227-1.358-0.606-1.894c-0.082-0.862-0.36-2.799-0.692-2.799
			c-0.227,0-0.426,0.897-0.561,1.742c-0.428-0.207-0.909-0.325-1.418-0.325c-0.51,0-0.989,0.119-1.42,0.325
			c-0.131-0.845-0.333-1.742-0.559-1.742c-0.333,0-0.611,1.937-0.692,2.799c-0.381,0.535-0.605,1.188-0.605,1.894
			c0,0.304,0.043,0.598,0.12,0.877c-0.91-0.298-1.71-0.734-2.294-1.318c0,0-0.001,0-0.002,0c-2.31-2.763-4.628-5.028-5.361-5.422
			c-1.558-0.835-13.113-4.064-13.113-4.064c6.6,5.418,6.541,10.72,6.541,10.72c6.744,1.326,8.473,5.273,8.473,5.273
			c6.529,0.177,8.495,2.095,8.885,2.573c-0.008,0.036-0.016,0.072-0.022,0.107c0,0,0.017-0.025,0.051-0.071
			c0.011,0.015,0.019,0.026,0.025,0.036c0.016,0.023,0.024,0.035,0.024,0.035s0.105-0.156,0.286-0.421
			c0.802-0.716,3.056-2.11,8.577-2.259c0,0,1.729-3.948,8.472-5.273c0,0-0.057-5.302,6.542-10.72
			C249.822,12.841,238.266,16.07,236.709,16.905z"/>
		<path id="bat_5_" fill="#B5B6B9" d="M46.208,95.18c-0.562,0.3-2.373,2.083-4.135,4.217c-0.413,0.333-0.934,0.595-1.521,0.778
			c0.062-0.211,0.096-0.436,0.096-0.668c0-0.521-0.166-1.002-0.446-1.397c-0.061-0.637-0.267-2.065-0.511-2.065
			c-0.167,0-0.315,0.663-0.413,1.285c-0.317-0.153-0.672-0.24-1.048-0.24c-0.375,0-0.729,0.087-1.047,0.24
			c-0.097-0.623-0.246-1.285-0.412-1.285c-0.246,0-0.451,1.428-0.512,2.065c-0.28,0.395-0.447,0.877-0.447,1.397
			c0,0.224,0.033,0.44,0.09,0.647c-0.672-0.22-1.263-0.542-1.693-0.973c0,0,0,0-0.001,0c-1.704-2.038-3.414-3.709-3.955-4.001
			c-1.148-0.616-9.675-2.998-9.675-2.998c4.869,3.998,4.826,7.909,4.826,7.909c4.976,0.978,6.25,3.891,6.25,3.891
			c4.817,0.13,6.268,1.545,6.555,1.897c-0.006,0.026-0.011,0.053-0.016,0.08c0,0,0.011-0.019,0.036-0.052
			c0.009,0.011,0.015,0.019,0.02,0.025c0.011,0.018,0.018,0.026,0.018,0.026s0.079-0.115,0.21-0.311
			c0.591-0.528,2.256-1.557,6.329-1.666c0,0,1.275-2.913,6.25-3.891c0,0-0.043-3.911,4.825-7.909
			C55.881,92.182,47.356,94.564,46.208,95.18z"/>
		<path id="bat_4_" fill="#B5B6B9" d="M311.634,61.105c-0.312,0.167-1.315,1.155-2.292,2.337c-0.229,0.185-0.518,0.33-0.845,0.432
			c0.034-0.118,0.054-0.243,0.054-0.371c0-0.289-0.092-0.555-0.248-0.774c-0.032-0.353-0.146-1.144-0.282-1.144
			c-0.093,0-0.175,0.367-0.229,0.712c-0.177-0.085-0.373-0.134-0.58-0.134c-0.208,0-0.405,0.048-0.58,0.134
			c-0.054-0.346-0.137-0.712-0.229-0.712c-0.137,0-0.25,0.791-0.283,1.144c-0.156,0.219-0.247,0.486-0.247,0.774
			c0,0.124,0.018,0.245,0.05,0.358c-0.374-0.122-0.7-0.3-0.938-0.539h-0.001c-0.944-1.129-1.893-2.056-2.194-2.217
			c-0.636-0.342-5.359-1.662-5.359-1.662c2.697,2.215,2.673,4.383,2.673,4.383c2.758,0.542,3.465,2.157,3.465,2.157
			c2.671,0.072,3.476,0.856,3.634,1.052c-0.004,0.015-0.007,0.029-0.009,0.044c0,0,0.006-0.011,0.021-0.029
			c0.004,0.006,0.007,0.011,0.01,0.014c0.006,0.01,0.009,0.015,0.009,0.015s0.044-0.064,0.119-0.172
			c0.327-0.293,1.249-0.863,3.508-0.923c0,0,0.705-1.615,3.463-2.157c0,0-0.023-2.167,2.674-4.383
			C316.994,59.443,312.269,60.763,311.634,61.105z"/>
	</g>
	<g>
		<path id="bat_1_" fill="#0E2132" d="M232.41,16.905c-0.762,0.408-3.217,2.823-5.605,5.716c-0.56,0.451-1.265,0.805-2.062,1.055
			c0.083-0.287,0.13-0.591,0.13-0.907c0-0.705-0.226-1.358-0.605-1.894c-0.081-0.862-0.361-2.799-0.692-2.799
			c-0.228,0-0.428,0.897-0.561,1.742c-0.429-0.207-0.91-0.325-1.419-0.325s-0.989,0.119-1.42,0.325
			c-0.131-0.845-0.334-1.742-0.558-1.742c-0.334,0-0.612,1.937-0.694,2.799c-0.38,0.535-0.605,1.188-0.605,1.894
			c0,0.304,0.045,0.598,0.123,0.877c-0.911-0.298-1.712-0.734-2.296-1.318c0,0-0.001,0-0.002,0c-2.31-2.763-4.626-5.028-5.362-5.422
			c-1.556-0.835-13.112-4.064-13.112-4.064c6.599,5.418,6.542,10.72,6.542,10.72c6.742,1.326,8.473,5.273,8.473,5.273
			c6.529,0.177,8.495,2.095,8.883,2.573c-0.007,0.036-0.015,0.072-0.021,0.107c0,0,0.016-0.025,0.05-0.071
			c0.011,0.015,0.02,0.026,0.025,0.036c0.016,0.023,0.025,0.035,0.025,0.035s0.106-0.156,0.284-0.421
			c0.802-0.716,3.058-2.11,8.579-2.259c0,0,1.728-3.948,8.472-5.273c0,0-0.058-5.302,6.541-10.72
			C245.522,12.841,233.967,16.07,232.41,16.905z"/>
		<path id="bat_2_" fill="#1B1C1B" d="M41.901,95.18c-0.562,0.3-2.373,2.083-4.135,4.217c-0.413,0.333-0.933,0.595-1.521,0.778
			c0.062-0.211,0.096-0.436,0.096-0.668c0-0.521-0.166-1.002-0.447-1.397c-0.06-0.637-0.266-2.065-0.511-2.065
			c-0.167,0-0.315,0.663-0.413,1.285c-0.316-0.153-0.671-0.24-1.047-0.24c-0.375,0-0.729,0.087-1.046,0.24
			c-0.097-0.623-0.247-1.285-0.412-1.285c-0.246,0-0.452,1.428-0.512,2.065c-0.281,0.395-0.447,0.877-0.447,1.397
			c0,0.224,0.033,0.44,0.089,0.647c-0.671-0.22-1.262-0.542-1.692-0.973c0,0,0,0-0.001,0c-1.704-2.038-3.414-3.709-3.956-4.001
			c-1.148-0.616-9.674-2.998-9.674-2.998c4.868,3.998,4.826,7.909,4.826,7.909c4.975,0.978,6.25,3.891,6.25,3.891
			c4.817,0.13,6.268,1.545,6.554,1.897c-0.006,0.026-0.011,0.053-0.016,0.08c0,0,0.011-0.019,0.036-0.052
			c0.009,0.011,0.015,0.019,0.019,0.025c0.012,0.018,0.019,0.026,0.019,0.026s0.079-0.115,0.21-0.311
			c0.592-0.528,2.255-1.557,6.329-1.666c0,0,1.275-2.913,6.25-3.891c0,0-0.042-3.911,4.826-7.909
			C51.575,92.182,43.049,94.564,41.901,95.18z"/>
		<path id="bat_3_" fill="#1B1C1B" d="M307.334,61.105c-0.312,0.167-1.316,1.155-2.293,2.337c-0.228,0.185-0.517,0.33-0.843,0.432
			c0.034-0.118,0.053-0.243,0.053-0.371c0-0.289-0.092-0.555-0.248-0.774c-0.032-0.353-0.146-1.144-0.282-1.144
			c-0.094,0-0.175,0.367-0.229,0.712c-0.177-0.085-0.373-0.134-0.581-0.134s-0.403,0.048-0.58,0.134
			c-0.054-0.346-0.137-0.712-0.228-0.712c-0.136,0-0.251,0.791-0.285,1.144c-0.153,0.219-0.247,0.486-0.247,0.774
			c0,0.124,0.019,0.245,0.051,0.358c-0.372-0.122-0.7-0.3-0.938-0.539h-0.001c-0.944-1.129-1.893-2.056-2.192-2.217
			c-0.636-0.342-5.362-1.662-5.362-1.662c2.697,2.215,2.675,4.383,2.675,4.383c2.758,0.542,3.464,2.157,3.464,2.157
			c2.671,0.072,3.475,0.856,3.633,1.052c-0.003,0.015-0.006,0.029-0.008,0.044c0,0,0.006-0.011,0.02-0.029
			c0.005,0.006,0.009,0.011,0.012,0.014c0.007,0.01,0.01,0.015,0.01,0.015s0.043-0.064,0.117-0.172
			c0.327-0.293,1.249-0.863,3.507-0.923c0,0,0.706-1.615,3.464-2.157c0,0-0.022-2.167,2.675-4.383
			C312.695,59.443,307.97,60.763,307.334,61.105z"/>
	</g>
</g>
<g id="stars">
	<path fill="#DBDBE5" d="M285.146,21.93c0,0,6.556,0,6.556,6.557c0,0,0-6.557,6.558-6.557c0,0-6.558,0-6.558-6.557
		C291.701,15.373,291.701,21.93,285.146,21.93z"/>
	<path fill="#DBDBE5" d="M16.865,34.127c0,0,4.458,0,4.458,4.458c0,0,0-4.458,4.46-4.458c0,0-4.46,0-4.46-4.459
		C21.323,29.668,21.323,34.127,16.865,34.127z"/>
	<path fill="#DBDBE5" d="M318.868,129.526c0,0,4.459,0,4.459,4.459c0,0,0-4.459,4.459-4.459c0,0-4.459,0-4.459-4.459
		C323.327,125.067,323.327,129.526,318.868,129.526z"/>
	<path fill="#DBDBE5" d="M69.865,91.677c0,0,6.555,0,6.555,6.557c0,0,0-6.557,6.559-6.557c0,0-6.559,0-6.559-6.557
		C76.42,85.12,76.42,91.677,69.865,91.677z"/>
	<path fill="#DBDBE5" d="M254.113,214.187c0,0,6.556,0,6.556,6.559c0,0,0-6.559,6.558-6.559c0,0-6.558,0-6.558-6.556
		C260.669,207.631,260.669,214.187,254.113,214.187z"/>
	<path fill="#DBDBE5" d="M71.457,212.875c0,0,6.556,0,6.556,6.559c0,0,0-6.559,6.558-6.559c0,0-6.558,0-6.558-6.556
		C78.013,206.319,78.013,212.875,71.457,212.875z"/>
	<path fill="#DBDBE5" d="M274.499,31.765c0,0,2.36,0,2.36,2.361c0,0,0-2.361,2.363-2.361c0,0-2.363,0-2.363-2.362
		C276.859,29.403,276.859,31.765,274.499,31.765z"/>
	<path fill="#DBDBE5" d="M281.587,150.096c0,0,2.361,0,2.361,2.361c0,0,0-2.361,2.361-2.361c0,0-2.361,0-2.361-2.362
		C283.948,147.733,283.948,150.096,281.587,150.096z"/>
	<path fill="#DBDBE5" d="M60.218,48.453c0,0,2.36,0,2.36,2.362c0,0,0-2.362,2.363-2.362c0,0-2.363,0-2.363-2.362
		C62.578,46.09,62.578,48.453,60.218,48.453z"/>
	<path fill="#DBDBE5" d="M23.421,150.096c0,0,2.36,0,2.36,2.361c0,0,0-2.361,2.362-2.361c0,0-2.362,0-2.362-2.362
		C25.782,147.733,25.782,150.096,23.421,150.096z"/>
	<path fill="#DBDBE5" d="M323.333,61.822c0,0,2.719,2.727-0.006,5.454c0,0,2.725-2.727,5.452,0c0,0-2.728-2.727,0-5.454
		C328.779,61.822,326.052,64.549,323.333,61.822z"/>
	<path fill="#DBDBE5" d="M123.089,19.202c0,0,2.72,2.727-0.005,5.454c0,0,2.725-2.728,5.452,0c0,0-2.727-2.728,0-5.454
		C128.536,19.202,125.809,21.929,123.089,19.202z"/>
	<path fill="#DBDBE5" d="M228.114,66.812c0,0,2.718,2.726-0.006,5.454c0,0,2.724-2.728,5.451,0c0,0-2.728-2.728,0-5.454
		C233.56,66.812,230.832,69.538,228.114,66.812z"/>
	<path fill="#DBDBE5" d="M304.492,193.837c0,0,2.718,2.727-0.007,5.454c0,0,2.725-2.728,5.452,0c0,0-2.728-2.728,0-5.454
		C309.938,193.837,307.21,196.563,304.492,193.837z"/>
	<path fill="#DBDBE5" d="M43.01,218.842c0,0,2.718,2.727-0.006,5.453c0,0,2.724-2.727,5.451,0c0,0-2.727-2.727,0-5.453
		C48.456,218.842,45.729,221.568,43.01,218.842z"/>
	<path fill="#DBDBE5" d="M105.605,61.822c0,0,2.72,2.727-0.005,5.454c0,0,2.725-2.727,5.452,0c0,0-2.727-2.727,0-5.454
		C111.052,61.822,108.325,64.549,105.605,61.822z"/>
</g>
<g id="candle_1_">
	<g opacity="0.4">
		<path fill="#B5B6B9" d="M37.104,144.741c-3.211,0-5.833,1.771-5.833,3.999v23.465c0,0.179,0.022,0.352,0.055,0.522v23.837h11.612
			v-24.359v-0.707v-22.692C42.938,146.577,40.316,144.741,37.104,144.741z"/>
		<path fill="#B5B6B9" d="M37.614,143.35c3.69-0.158,6.569-2.104,6.569-8.309c0-6.488-7.079-15.271-7.079-15.271
			s-7.079,8.652-7.079,15.206c0,6.263,2.935,8.213,6.569,8.374v1.392h0.51h0.51V143.35z"/>
	</g>
	<g>
		<g>
			<g>
				<g>
					<path fill="#EC8123" d="M33.922,119.77c0,0-7.079,8.652-7.079,15.206c0,6.555,3.212,8.39,7.079,8.39
						c3.933,0,7.079-1.835,7.079-8.324C41.001,128.553,33.922,119.77,33.922,119.77z"/>
				</g>
			</g>
			<g>
				<g>
					<path fill="#F7CC2B" d="M33.922,125.521c0,0-4.577,5.621-4.577,9.792c0,4.172,2.028,5.388,4.577,5.388s4.577-1.216,4.577-5.388
						C38.499,131.143,33.922,125.521,33.922,125.521z"/>
				</g>
			</g>
			<linearGradient id="SVGID_8_" gradientUnits="userSpaceOnUse" x1="28.0894" y1="170.6523" x2="39.7559" y2="170.6523">
				<stop  offset="0" style="stop-color:#BB97C5"/>
				<stop  offset="0.1578" style="stop-color:#AC88BA"/>
				<stop  offset="0.4736" style="stop-color:#9371A8"/>
				<stop  offset="0.7632" style="stop-color:#84629D"/>
				<stop  offset="1" style="stop-color:#7F5D99"/>
			</linearGradient>
			<path fill="url(#SVGID_8_)" d="M33.922,144.741c-3.211,0-5.833,1.771-5.833,3.999v23.465c0,0.179,0.022,0.352,0.055,0.522v23.837
				h11.612v-24.359v-0.707v-22.692C39.756,146.577,37.134,144.741,33.922,144.741z"/>
		</g>
		<g>
			<rect x="33.413" y="134.155" fill="#0E2132" width="1.02" height="10.586"/>
		</g>
	</g>
</g>
<g id="candle">
	<g opacity="0.4">
		<path fill="#B5B6B9" d="M303.925,144.741c-3.212,0-5.833,1.771-5.833,3.999v23.465c0,0.179,0.022,0.352,0.055,0.522v23.837h11.611
			v-24.359v-0.707v-22.692C309.758,146.577,307.137,144.741,303.925,144.741z"/>
		<path fill="#B5B6B9" d="M304.435,143.35c3.69-0.158,6.569-2.104,6.569-8.309c0-6.488-7.079-15.271-7.079-15.271
			s-7.079,8.652-7.079,15.206c0,6.263,2.936,8.213,6.569,8.374v1.392h0.51h0.51V143.35z"/>
	</g>
	<g>
		<g>
			<g>
				<g>
					<path fill="#EC8123" d="M300.743,119.77c0,0-7.079,8.652-7.079,15.206c0,6.555,3.212,8.39,7.079,8.39
						c3.933,0,7.079-1.835,7.079-8.324C307.822,128.553,300.743,119.77,300.743,119.77z"/>
				</g>
			</g>
			<g>
				<g>
					<path fill="#F7CC2B" d="M300.743,125.521c0,0-4.576,5.621-4.576,9.792c0,4.172,2.027,5.388,4.576,5.388
						s4.576-1.216,4.576-5.388C305.319,131.143,300.743,125.521,300.743,125.521z"/>
				</g>
			</g>
			<path fill="#0E2132" d="M300.743,144.741c-3.212,0-5.833,1.771-5.833,3.999v23.465c0,0.179,0.022,0.352,0.054,0.522v23.837
				h11.612v-24.359v-0.707v-22.692C306.576,146.577,303.955,144.741,300.743,144.741z"/>
		</g>
		<g>
			<rect x="300.233" y="134.155" fill="#0E2132" width="1.02" height="10.586"/>
		</g>
	</g>
</g>
</svg>
