<?xml version="1.0" encoding="utf-8"?>
<!-- Generator: Adobe Illustrator 16.0.0, SVG Export Plug-In . SVG Version: 6.00 Build 0)  -->
<!DOCTYPE svg PUBLIC "-//W3C//DTD SVG 1.1//EN" "http://www.w3.org/Graphics/SVG/1.1/DTD/svg11.dtd">
<svg version="1.1" id="items_1_" xmlns="http://www.w3.org/2000/svg" xmlns:xlink="http://www.w3.org/1999/xlink" x="0px" y="0px"
	 width="335.986px" height="235.19px" viewBox="0 0 335.986 235.19" enable-background="new 0 0 335.986 235.19"
	 xml:space="preserve">
<linearGradient id="sky_1_" gradientUnits="userSpaceOnUse" x1="167.9937" y1="235.1904" x2="167.9936" y2="4.882812e-04">
	<stop  offset="0" style="stop-color:#367A91"/>
	<stop  offset="1" style="stop-color:#262732"/>
</linearGradient>
<rect id="sky" fill="url(#sky_1_)" width="335.986" height="235.19"/>
<g id="tree_shadows" opacity="0.6">
	<polygon fill="#CCCCCC" points="71.723,139.263 62.284,138.472 79.167,109.812 49.278,149.818 48.071,126.412 55.304,115.835 
		67.001,115.535 56.131,114.624 66.356,99.67 87.605,99.123 67.861,97.47 82.454,76.126 58.613,103.918 58.155,86.111 
		56.453,106.436 47.574,116.785 46.544,96.796 46.455,95.059 44.009,47.592 42.92,66.404 28.538,52.743 42.738,69.541 
		41.635,88.609 25.474,66.979 41.329,93.892 40.157,114.142 36.61,109.393 36.222,108.875 17.139,83.331 32.246,108.975 
		14.325,109.438 33.462,111.041 39.722,121.667 38.169,148.5 31.494,139.565 31.036,121.757 29.741,137.219 9.264,109.812 
		29.201,143.656 29.173,143.993 29.404,143.999 37.624,157.95 34.161,217.774 52.779,217.774 49.786,159.688 61.666,139.52 	"/>
	<polygon fill="#CCCCCC" points="330.967,110.512 310.489,137.918 309.194,122.456 308.736,140.265 302.061,149.199 
		300.508,122.366 306.768,111.74 325.904,110.137 307.984,109.674 323.091,84.03 304.008,109.574 303.62,110.092 300.072,114.841 
		298.901,94.591 314.756,67.678 298.595,89.308 297.492,70.24 311.692,53.442 297.31,67.104 296.221,48.292 294.411,83.411 
		276.354,59.241 294.179,87.921 293.775,95.758 293.686,97.496 292.656,117.484 283.777,107.135 282.074,86.811 281.617,104.618 
		257.776,76.825 272.369,98.169 252.625,99.822 273.874,100.369 284.1,115.323 273.229,116.234 284.926,116.534 292.159,127.111 
		290.952,150.518 261.062,110.512 277.946,139.171 268.508,139.962 278.564,140.219 290.444,160.387 287.451,218.474 
		306.068,218.474 302.606,158.649 310.826,144.698 311.057,144.692 311.029,144.355 	"/>
	<polygon fill="#CCCCCC" points="105.497,155.886 95.292,155.032 102.834,144 90.513,158.365 90.276,149.161 89.396,159.666 
		84.807,165.015 84.275,154.684 84.229,153.785 82.965,129.254 82.402,138.976 74.969,131.915 82.308,140.597 81.738,150.451 
		73.385,139.273 81.58,153.184 80.975,163.647 79.141,161.194 79.148,160.921 78.94,160.926 69.078,147.725 76.885,160.978 
		67.624,161.217 77.514,162.045 80.75,167.537 79.947,181.405 76.497,176.787 76.26,167.584 75.591,175.574 65.008,161.41 
		75.312,178.901 75.297,179.076 75.417,179.079 79.665,186.289 77.875,217.208 87.498,217.208 85.951,187.188 92.091,176.764 
		97.288,176.631 92.41,176.223 101.136,161.41 85.688,182.086 85.064,169.989 88.802,164.523 94.848,164.368 89.229,163.896 
		94.515,156.169 	"/>
</g>
<polygon id="dead_tree_2_" fill="#262732" points="42.767,95.059 40.321,47.592 39.232,66.404 24.85,52.743 39.05,69.541 
	37.947,88.609 21.786,66.979 37.641,93.892 36.469,114.142 32.922,109.393 32.534,108.875 13.451,83.331 28.558,108.975 
	10.637,109.438 29.774,111.041 36.034,121.667 34.481,148.5 27.806,139.565 27.348,121.757 26.053,137.219 5.576,109.812 
	25.513,143.656 25.485,143.993 25.716,143.999 33.936,157.95 30.473,217.774 49.091,217.774 46.098,159.688 57.978,139.52 
	68.035,139.263 58.596,138.472 75.479,109.812 45.59,149.818 44.383,126.412 51.616,115.835 63.313,115.535 52.443,114.624 
	62.668,99.67 83.917,99.123 64.173,97.47 78.766,76.126 54.925,103.918 54.467,86.111 52.765,106.436 43.886,116.785 42.856,96.796 
	"/>
<polygon id="dead_tree_1_" fill="#262732" points="327.285,110.512 306.808,137.918 305.513,122.456 305.055,140.265 
	298.379,149.199 296.826,122.366 303.086,111.74 322.223,110.137 304.303,109.674 319.409,84.03 300.326,109.574 299.938,110.092 
	296.391,114.841 295.22,94.591 311.074,67.678 294.913,89.308 293.811,70.24 308.011,53.442 293.628,67.104 292.539,48.292 
	290.729,83.411 272.673,59.241 290.497,87.921 290.094,95.758 290.004,97.496 288.975,117.484 280.096,107.135 278.393,86.811 
	277.936,104.618 254.095,76.825 268.688,98.169 248.943,99.822 270.192,100.369 280.418,115.323 269.547,116.234 281.244,116.534 
	288.478,127.111 287.271,150.518 257.381,110.512 274.265,139.171 264.826,139.962 274.883,140.219 286.763,160.387 283.77,218.474 
	302.387,218.474 298.925,158.649 307.145,144.698 307.375,144.692 307.348,144.355 "/>
<polygon id="dead_tree" fill="#262732" points="80.541,153.785 79.277,129.254 78.714,138.976 71.281,131.915 78.62,140.597 
	78.05,150.451 69.697,139.273 77.892,153.184 77.287,163.647 75.453,161.194 75.46,160.921 75.252,160.926 65.39,147.725 
	73.197,160.978 63.936,161.217 73.826,162.045 77.062,167.537 76.259,181.405 72.809,176.787 72.572,167.584 71.903,175.574 
	61.32,161.41 71.624,178.901 71.609,179.076 71.729,179.079 75.977,186.289 74.188,217.208 83.81,217.208 82.263,187.188 
	88.403,176.764 93.6,176.631 88.722,176.223 97.448,161.41 82,182.086 81.376,169.989 85.114,164.523 91.16,164.368 85.542,163.896 
	90.827,156.169 101.809,155.886 91.604,155.032 99.146,144 86.825,158.365 86.588,149.161 85.708,159.666 81.119,165.015 
	80.587,154.684 "/>
<g id="moon">
	<g>
		
			<radialGradient id="SVGID_1_" cx="108.4316" cy="154.1865" r="92.8655" gradientTransform="matrix(0.9988 0.0487 -0.0487 0.9988 62.9401 -66.5351)" gradientUnits="userSpaceOnUse">
			<stop  offset="0.2154" style="stop-color:#AF5B11"/>
			<stop  offset="0.3717" style="stop-color:#AC5911"/>
			<stop  offset="0.4916" style="stop-color:#A25410"/>
			<stop  offset="0.5994" style="stop-color:#924C0E"/>
			<stop  offset="0.7001" style="stop-color:#7B400C"/>
			<stop  offset="0.7959" style="stop-color:#5D3009"/>
			<stop  offset="0.8879" style="stop-color:#381D05"/>
			<stop  offset="0.9753" style="stop-color:#0D0701"/>
			<stop  offset="1" style="stop-color:#000000"/>
		</radialGradient>
		<path fill="url(#SVGID_1_)" d="M256.359,97.241c-2.456,51.152-45.984,90.598-97.117,88.141
			c-51.153-2.491-90.613-45.989-88.136-97.162c2.519-51.163,46.005-90.624,97.148-88.106
			C219.427,2.596,258.866,46.088,256.359,97.241z"/>
		<radialGradient id="SVGID_2_" cx="163.2031" cy="92.5674" r="79.5303" gradientUnits="userSpaceOnUse">
			<stop  offset="0" style="stop-color:#F9FAD5"/>
			<stop  offset="1" style="stop-color:#FBEA7F"/>
		</radialGradient>
		<circle fill="url(#SVGID_2_)" cx="163.203" cy="92.567" r="79.531"/>
		<path opacity="0.4" fill="#CCCCCC" d="M163.203,13.037c-2.127,0-4.227,0.108-6.312,0.272c40.97,3.22,73.219,37.462,73.219,79.258
			c0,41.797-32.249,76.038-73.219,79.258c2.085,0.164,4.185,0.272,6.312,0.272c43.924,0,79.531-35.606,79.531-79.53
			C242.733,48.645,207.127,13.037,163.203,13.037z"/>
		<g opacity="0.5">
			
				<ellipse transform="matrix(0.7071 -0.7071 0.7071 0.7071 0.9885 94.3558)" fill="#CCCCCC" cx="114.402" cy="45.985" rx="5.664" ry="5.538"/>
			
				<ellipse transform="matrix(0.7071 -0.7071 0.7071 0.7071 12.1507 112.7546)" fill="#CCCCCC" cx="142.174" cy="41.711" rx="8.498" ry="8.309"/>
			<path fill="#CCCCCC" d="M125.792,89.424c-6.634,6.633-17.28,6.755-23.766,0.27c-6.487-6.487-6.366-17.135,0.268-23.768
				c6.638-6.639,17.282-6.756,23.769-0.27C132.549,72.144,132.427,82.787,125.792,89.424z"/>
		</g>
	</g>
	<path fill="#262732" d="M112.888,101.16l34.814,12.414c-3.77,7.544-9.218,11.318-16.321,11.318c-2.175,0-4.208-0.359-6.098-1.093
		C115.721,118.869,111.576,111.326,112.888,101.16z"/>
	<path fill="#262732" d="M201.121,123.8c-1.889,0.733-3.922,1.093-6.098,1.093c-7.102,0-12.551-3.774-16.32-11.318l34.814-12.414
		C214.83,111.326,210.686,118.869,201.121,123.8z"/>
	<path fill="#262732" d="M213.049,129.476c0-0.908-0.086-1.804-0.266-2.688c-1.527,7.702-9.559,14.398-21.191,18.584l-3.16-3.51
		l-5.397,5.98c-0.872,0.197-1.756,0.379-2.655,0.548l-4.506-4.989l-5.701,6.312c-0.361,0.028-0.729,0.046-1.096,0.069l-5.758-6.381
		l-5.757,6.381c-0.372-0.023-0.739-0.041-1.106-0.069l-5.694-6.312l-4.508,4.989c-0.75-0.141-1.491-0.294-2.222-0.453l-5.826-6.458
		l-3.428,3.796c-11.483-4.192-19.407-10.843-20.929-18.487c-0.171,0.885-0.266,1.78-0.266,2.688c0,8.181,7.31,15.471,18.71,20.208
		l7.23,8.523l1.875-5.516c1.782,0.457,3.626,0.854,5.515,1.201l3.848,6.237l2.974-5.276c2.287,0.232,2.649,0.386,5.034,0.447
		l4.55,5.485l4.55-5.485c2.384-0.062,2.741-0.215,5.028-0.447l2.977,5.276l3.85-6.237c1.793-0.326,3.541-0.7,5.232-1.125
		l2.158,5.825l7.78-9.138C205.982,144.714,213.049,137.525,213.049,129.476z"/>
</g>
<g id="bush">
	<path fill="#262732" d="M109.76,208.701H90.716c-2.427,0-4.395,1.968-4.395,4.395h-0.733c-1.213,0-2.197,0.984-2.197,2.198
		s0.984,2.197,2.197,2.197h3.337h0.651h1.14h2.198h13.917l0,0h5.86v-2.93v-1.466v-1.465
		C112.69,210.014,111.379,208.701,109.76,208.701z"/>
	<path fill="#3C3C3B" d="M18.711,217.491H53.16c-0.695-1.52-2.213-2.584-3.995-2.584H33.002c0-3.246-2.631-5.877-5.877-5.877
		c-3.247,0-5.877,2.631-5.877,5.877c0,0.086,0.009,0.168,0.012,0.252C20.125,215.557,19.207,216.406,18.711,217.491z"/>
	<path fill="#262732" d="M190.898,217.572c0,0-1.457-7.726,10.787-6.705c1.167-1.896,8.309-4.736,10.787,1.992
		c2.915-0.086,6.795,0.237,6.795,4.713C215.242,217.572,190.898,217.572,190.898,217.572z"/>
	<path fill="#3C3C3B" d="M300.898,217.572c0,0-1.457-7.726,10.787-6.705c1.167-1.896,8.309-4.736,10.787,1.992
		c2.915-0.086,6.795,0.237,6.795,4.713C325.242,217.572,300.898,217.572,300.898,217.572z"/>
	<path fill="#3C3C3B" d="M110.181,217.569c-0.351-0.616-0.553-1.34-0.553-2.114c0-2.239,1.688-4.054,3.77-4.054
		c0.573,0,1.118,0.138,1.605,0.385c0.708-2.172,2.631-3.729,4.893-3.729h0.215c2.262,0,4.185,1.558,4.893,3.729
		c0.487-0.247,1.031-0.385,1.605-0.385c2.083,0,3.77,1.814,3.77,4.054c0,0.774-0.202,1.498-0.553,2.114H110.181z"/>
	<path fill="#262732" d="M273.23,217.569c-0.352-0.616-0.553-1.34-0.553-2.114c0-2.239,1.688-4.054,3.77-4.054
		c0.573,0,1.117,0.138,1.605,0.385c0.707-2.172,2.631-3.729,4.893-3.729h0.215c2.262,0,4.186,1.558,4.893,3.729
		c0.488-0.247,1.031-0.385,1.605-0.385c2.082,0,3.77,1.814,3.77,4.054c0,0.774-0.201,1.498-0.553,2.114H273.23z"/>
</g>
<g id="cemetery_shadow" opacity="0.6">
	<path fill="#ABB4BC" d="M55.609,214.907h-0.051v-3.294v-17.632c0-6.492-5.263-11.755-11.755-11.755
		c-6.492,0-11.755,5.263-11.755,11.755v15.255c-2.508,0.67-4.357,2.951-4.357,5.671c0,0.086,0.009,0.168,0.012,0.252
		c-0.81,0.283-1.5,0.805-2.015,1.47v-26.137H11.003v26.999h14.152h0.533h6.359h23.51h4.045
		C58.909,215.972,57.39,214.907,55.609,214.907z"/>
	<path fill="#ABB4BC" d="M218.908,212.859c-2.479-6.729-9.62-3.888-10.787-1.992c-2.252-0.188-4.037-0.078-5.457,0.224v-13.958
		h-14.686v20.358h9.343c0.007,0.052,0.013,0.081,0.013,0.081s24.344,0,28.369,0C225.703,213.097,221.823,212.773,218.908,212.859z"
		/>
	<path fill="#ABB4BC" d="M335.703,217.572c0-4.476-3.88-4.799-6.795-4.713c-2.479-6.729-9.62-3.888-10.787-1.992
		c-2.952-0.246-5.103,0.02-6.674,0.56v-12.055h7.306v-4.531h-7.306v-6.05h-4.532v6.05h-6.774v4.507v0.024h2.639l4.136,0.04v18.079
		h0.406c0.007,0.052,0.013,0.081,0.013,0.081S331.678,217.572,335.703,217.572z"/>
	<path fill="#ABB4BC" d="M296.094,211.401c-0.574,0-1.117,0.138-1.605,0.385c-0.707-2.172-2.631-3.729-4.893-3.729h-0.215
		c-1.194,0-2.287,0.442-3.164,1.173v-8.375l-5.952-4.726v-5.383h2.911v-1.807h-2.911v-2.41h-1.807v2.41h-2.699v1.797v0.01h1.052
		l1.647,0.016v5.632l-6.448,4.993v16.09h7.611c0.016,0.03,0.028,0.063,0.045,0.093h19.645c0.352-0.616,0.553-1.34,0.553-2.114
		C299.863,213.216,298.176,211.401,296.094,211.401z"/>
	<path fill="#ABB4BC" d="M141.108,181.921c-3.618,0-6.883,1.356-9.177,3.477l3.364,2.856h6.475l2.963,2.092l-0.577,0.816
		l-2.704-1.908h-6.525l-3.691-3.134l0.293-0.346c-1.839,1.866-2.955,4.256-2.955,6.825v15.914c-0.623-0.285-1.301-0.457-2.021-0.457
		h-0.215c-2.261,0-4.185,1.558-4.893,3.729c-0.487-0.247-1.032-0.385-1.605-0.385c-0.248,0-0.488,0.029-0.723,0.078
		c-0.001-0.016-0.004-0.031-0.005-0.047v-14.2c0-4.576-3.964-8.441-9.249-8.441c-5.083,0-9.249,3.88-9.249,8.474v11.437H97.16
		c-2.427,0-4.395,1.968-4.395,4.395h-0.733c-1.213,0-2.197,0.984-2.197,2.198s0.984,2.197,2.197,2.197h3.337h0.651h1.14h2.198h1.719
		h8.79h3.409h3.312c0.014,0.025,0.024,0.053,0.038,0.078h19.645c0.034-0.06,0.06-0.124,0.09-0.186h17.28v-15.471l-3.194,1.469v2.203
		l-4.73,4.723l-0.707-0.707l4.437-4.43v-1.329l-2.167,0.996h-4.684l-2.399,2.297v2.271h-1v-2.699l2.998-2.869h4.974l6.472-3.034
		v-8.245C153.639,186.792,147.994,181.921,141.108,181.921z"/>
	<polygon fill="#ABB4BC" points="91.312,189.318 82.226,189.318 82.226,181.794 76.588,181.794 76.588,189.318 68.163,189.318 
		68.163,194.924 68.163,194.955 71.445,194.955 76.588,195.004 76.588,217.491 77.333,217.491 82.125,217.491 82.226,217.491 
		82.226,194.955 91.312,194.955 	"/>
	<polygon fill="#ABB4BC" points="178.565,198.733 175.387,197.133 173.256,201.377 168.507,198.985 166.917,202.146 
		166.909,202.164 168.759,203.096 171.645,204.583 165.264,217.264 169.249,217.264 174.832,206.155 179.955,208.733 
		181.554,205.555 176.43,202.977 	"/>
	<path fill="#ABB4BC" d="M249.169,179.18c-4.314,0-7.958,2.869-9.128,6.803h-4.477v31.291h27.209v-31.291h-4.477
		C257.127,182.049,253.482,179.18,249.169,179.18z"/>
</g>
<g id="cemetery">
	<rect x="4.56" y="190.492" fill="#3C3C3B" width="14.685" height="26.999"/>
	<rect x="181.543" y="197.133" fill="#3C3C3B" width="14.686" height="20.358"/>
	<path fill="#ABB4BC" d="M147.195,201.913l-3.194,1.469v2.203l-4.73,4.723l-0.707-0.707l4.437-4.43v-1.329l-2.167,0.996h-4.684
		l-2.399,2.297v2.271h-1v-2.699l2.998-2.869h4.974l6.472-3.034v-8.245c0-5.767-5.645-10.638-12.531-10.638
		c-3.618,0-6.883,1.356-9.177,3.477l3.364,2.856h6.475l2.963,2.092l-0.577,0.816l-2.704-1.908h-6.525l-3.691-3.134l0.293-0.346
		c-1.839,1.866-2.955,4.256-2.955,6.825v24.784h25.064V201.913z"/>
	<path fill="#ABB4BC" d="M37.359,182.227c-6.492,0-11.755,5.263-11.755,11.755v23.51h23.51v-5.878v-17.632
		C49.114,187.489,43.852,182.227,37.359,182.227z"/>
	<polygon fill="#3C3C3B" points="84.868,189.318 75.782,189.318 75.782,181.794 70.145,181.794 70.145,189.318 61.719,189.318 
		61.719,194.924 61.719,194.955 65.001,194.955 70.145,195.004 70.145,217.491 70.889,217.491 75.681,217.491 75.782,217.491 
		75.782,194.955 84.868,194.955 	"/>
	<polygon fill="#D0D6D6" points="312.317,194.841 305.012,194.841 305.012,188.791 300.479,188.791 300.479,194.841 
		293.705,194.841 293.705,199.348 293.705,199.372 296.344,199.372 300.479,199.412 300.479,217.491 301.078,217.491 
		304.931,217.491 305.012,217.491 305.012,199.372 312.317,199.372 	"/>
	<g>
		<path fill="#D0D6D6" d="M112.532,217.491h-17.9c-0.235,0-0.459-0.321-0.459-0.56v-19.667c0-4.594,4.166-8.474,9.249-8.474
			c5.082,0,9.248,3.865,9.248,8.441v19.699C112.67,217.17,112.768,217.491,112.532,217.491z"/>
		<path fill="#ABB4BC" d="M103.422,188.791v28.7h9.111c0.235,0,0.138-0.321,0.138-0.56v-19.699
			C112.67,192.656,108.706,188.791,103.422,188.791z"/>
		<path fill="#3C3C3B" d="M106.987,197.673h-3.28v-3.209c0-0.235-0.205-0.426-0.44-0.426s-0.44,0.19-0.44,0.426v3.209h-3.512
			c-0.235,0-0.426,0.205-0.426,0.44c0,0.236,0.191,0.44,0.426,0.44h3.512v8.27c0,0.236,0.205,0.427,0.44,0.427s0.44-0.19,0.44-0.427
			v-8.27h3.28c0.236,0,0.426-0.204,0.426-0.44C107.413,197.878,107.223,197.673,106.987,197.673z"/>
	</g>
	<polygon fill="#262732" points="169.994,202.977 172.13,198.733 168.951,197.133 166.816,201.377 162.064,198.985 160.473,202.146 
		160.465,202.164 162.316,203.096 165.202,204.583 158.82,217.264 162.806,217.264 168.396,206.155 173.52,208.733 175.118,205.555 
			"/>
	<g>
		<path fill="#262732" d="M242.733,179.18c-4.314,0-7.958,2.869-9.128,6.803h-4.477v31.291h27.209v-31.291h-4.477
			C250.691,182.049,247.047,179.18,242.733,179.18z"/>
		<path fill="#D0D6D6" d="M246.568,192.426h-3.279v-3.209c0-0.235-0.205-0.426-0.44-0.426s-0.44,0.19-0.44,0.426v3.209h-3.512
			c-0.234,0-0.426,0.205-0.426,0.44c0,0.236,0.191,0.44,0.426,0.44h3.512v8.27c0,0.236,0.205,0.427,0.44,0.427s0.44-0.19,0.44-0.427
			v-8.27h3.279c0.236,0,0.427-0.204,0.427-0.44C246.995,192.631,246.805,192.426,246.568,192.426z"/>
	</g>
	<polygon id="tomb_2_" fill="#3C3C3B" points="273.829,196.129 273.829,190.746 276.74,190.746 276.74,188.939 273.829,188.939 
		273.829,186.529 272.022,186.529 272.022,188.939 269.323,188.939 269.323,190.736 269.323,190.746 270.375,190.746 
		272.022,190.762 272.022,196.394 265.574,201.387 265.574,217.477 279.781,217.477 279.781,200.854 	"/>
</g>
<g id="ground">
	<rect y="222.041" fill="#D0D6D6" width="335.986" height="13.149"/>
	<rect y="217.264" fill="#ABB4BC" width="335.986" height="4.777"/>
	<rect y="222.041" opacity="0.6" fill="#3E414A" width="335.986" height="4.777"/>
</g>
<g id="stars">
	<path opacity="0.74" fill="#FFFFFF" d="M17.21,47.044c-0.136-0.954-0.884-1.703-1.839-1.839l-0.307-6.299l-0.307,6.299
		c-0.954,0.136-1.703,0.884-1.839,1.837l-6.299,0.306l6.299,0.308c0.137,0.954,0.885,1.703,1.839,1.839l0.306,6.299l0.309-6.299
		c0.953-0.137,1.7-0.885,1.837-1.838l6.299-0.305L17.21,47.044z"/>
	<path opacity="0.74" fill="#FFFFFF" d="M322.908,47.044c-0.136-0.954-0.885-1.703-1.84-1.839l-0.307-6.299l-0.307,6.299
		c-0.954,0.136-1.703,0.884-1.84,1.837l-6.299,0.306l6.299,0.308c0.138,0.954,0.886,1.703,1.84,1.839l0.307,6.299l0.309-6.299
		c0.952-0.137,1.699-0.885,1.837-1.838l6.299-0.305L322.908,47.044z"/>
	<path opacity="0.74" fill="#FFFFFF" d="M55.961,25.736c0.221-0.298,0.222-0.694,0.001-0.992l1.655-1.825l-1.825,1.655
		c-0.298-0.221-0.696-0.221-0.994,0l-1.825-1.656l1.655,1.825c-0.221,0.298-0.221,0.695,0,0.993l-1.656,1.824l1.826-1.655
		c0.298,0.222,0.694,0.222,0.992,0l1.825,1.656L55.961,25.736z"/>
	<path opacity="0.74" fill="#FFFFFF" d="M294.371,25.736c0.221-0.298,0.222-0.694,0.001-0.992l1.655-1.825l-1.824,1.655
		c-0.299-0.221-0.696-0.221-0.994,0l-1.824-1.656l1.654,1.825c-0.221,0.298-0.221,0.695,0,0.993l-1.655,1.824l1.826-1.655
		c0.298,0.222,0.694,0.222,0.992,0l1.825,1.656L294.371,25.736z"/>
	<path opacity="0.74" fill="#FFFFFF" d="M88.316,17.183c-0.047-0.317-0.29-0.56-0.606-0.607l-0.103-2.128l-0.104,2.128
		c-0.317,0.047-0.561,0.29-0.607,0.606l-2.128,0.104l2.128,0.104c0.048,0.317,0.29,0.56,0.607,0.606l0.104,2.128l0.104-2.128
		c0.318-0.047,0.561-0.29,0.607-0.606l2.128-0.104L88.316,17.183z"/>
	<path opacity="0.74" fill="#FFFFFF" d="M33.58,17.183c-0.047-0.317-0.289-0.56-0.606-0.607l-0.103-2.128l-0.104,2.128
		c-0.318,0.047-0.561,0.29-0.607,0.606l-2.128,0.104l2.128,0.104c0.047,0.317,0.29,0.56,0.606,0.606l0.104,2.128l0.104-2.128
		c0.317-0.047,0.56-0.29,0.607-0.606l2.128-0.104L33.58,17.183z"/>
	<path opacity="0.74" fill="#FFFFFF" d="M185.77,123.011c-0.048-0.318-0.289-0.56-0.606-0.607l-0.104-2.128l-0.104,2.128
		c-0.316,0.047-0.561,0.289-0.607,0.607l-2.127,0.104l2.127,0.104c0.048,0.318,0.29,0.56,0.607,0.606l0.104,2.127l0.104-2.127
		c0.316-0.047,0.56-0.29,0.606-0.606l2.128-0.104L185.77,123.011z"/>
	<path opacity="0.74" fill="#FFFFFF" d="M76.569,106.688c-0.034-0.229-0.209-0.405-0.44-0.439l-0.075-1.545l-0.076,1.545
		c-0.23,0.034-0.407,0.21-0.441,0.439l-1.543,0.075l1.543,0.075c0.035,0.23,0.21,0.406,0.441,0.44l0.074,1.543l0.076-1.543
		c0.23-0.034,0.406-0.21,0.44-0.44l1.544-0.075L76.569,106.688z"/>
	<path opacity="0.74" fill="#FFFFFF" d="M321.277,96.464c-0.034-0.229-0.209-0.405-0.439-0.439l-0.075-1.545l-0.075,1.545
		c-0.23,0.034-0.407,0.21-0.441,0.439l-1.543,0.075l1.543,0.075c0.035,0.23,0.211,0.406,0.441,0.44l0.074,1.543l0.076-1.543
		c0.229-0.034,0.406-0.21,0.439-0.44l1.544-0.075L321.277,96.464z"/>
	<path opacity="0.74" fill="#FFFFFF" d="M234.794,151.076c0.398-0.536,0.4-1.252,0-1.791l2.987-3.294l-3.294,2.989
		c-0.537-0.4-1.255-0.4-1.793-0.002l-3.294-2.989l2.988,3.295c-0.399,0.54-0.398,1.254,0.001,1.792l-2.989,3.293l3.296-2.986
		c0.538,0.399,1.254,0.399,1.791,0l3.296,2.991L234.794,151.076z"/>
	<path opacity="0.74" fill="#FFFFFF" d="M84.277,125.586c0.312-0.418,0.31-0.973,0.001-1.387l2.311-2.545l-2.546,2.309
		c-0.416-0.308-0.97-0.308-1.386-0.001l-2.545-2.308l2.309,2.545c-0.307,0.417-0.307,0.969,0.001,1.387l-2.312,2.545l2.548-2.31
		c0.417,0.31,0.97,0.308,1.385,0l2.545,2.31L84.277,125.586z"/>
	<path opacity="0.74" fill="#FFFFFF" d="M257.049,107.696l2.127-0.102l-2.127-0.105c-0.047-0.316-0.288-0.56-0.605-0.606
		l-0.104-2.127l-0.104,2.127c-0.318,0.046-0.561,0.29-0.608,0.606l-2.127,0.103l2.127,0.104c0.048,0.317,0.29,0.562,0.607,0.608
		l0.104,2.127l0.104-2.127C256.759,108.257,257.002,108.015,257.049,107.696z"/>
	<path opacity="0.74" fill="#FFFFFF" d="M231.983,20.592c0.19-0.257,0.19-0.6,0-0.857l1.432-1.578l-1.578,1.431
		c-0.258-0.192-0.602-0.192-0.859-0.001l-1.576-1.432l1.431,1.577c-0.191,0.259-0.191,0.603,0,0.86l-1.432,1.577l1.578-1.431
		c0.257,0.191,0.6,0.191,0.857-0.001l1.577,1.432L231.983,20.592z"/>
	<path opacity="0.74" fill="#FFFFFF" d="M18.558,145.885c-0.047-0.316-0.289-0.56-0.606-0.606l-0.103-2.127l-0.104,2.127
		c-0.318,0.046-0.561,0.288-0.608,0.606l-2.127,0.103l2.127,0.104c0.047,0.317,0.29,0.562,0.607,0.607l0.104,2.128l0.104-2.128
		c0.316-0.046,0.559-0.288,0.606-0.606l2.128-0.103L18.558,145.885z"/>
	<path opacity="0.74" fill="#FFFFFF" d="M319.414,145.885c-0.047-0.316-0.289-0.56-0.605-0.606l-0.104-2.127l-0.104,2.127
		c-0.317,0.046-0.561,0.288-0.608,0.606l-2.127,0.103l2.127,0.104c0.048,0.317,0.291,0.562,0.607,0.607l0.104,2.128l0.104-2.128
		c0.316-0.046,0.56-0.288,0.606-0.606l2.128-0.103L319.414,145.885z"/>
	<path opacity="0.74" fill="#FFFFFF" d="M50.022,85.77c0.304-0.405,0.305-0.96,0-1.364l2.227-2.454l-2.454,2.226
		c-0.404-0.305-0.961-0.305-1.366-0.002l-2.452-2.226l2.225,2.454c-0.304,0.405-0.305,0.961,0,1.366l-2.225,2.453l2.453-2.225
		c0.404,0.302,0.959,0.302,1.365,0l2.452,2.226L50.022,85.77z"/>
	<path opacity="0.74" fill="#FFFFFF" d="M273.587,85.77c0.304-0.405,0.305-0.96,0-1.364l2.228-2.454l-2.455,2.226
		c-0.404-0.305-0.961-0.305-1.365-0.002l-2.452-2.226l2.225,2.454c-0.304,0.405-0.305,0.961-0.001,1.366l-2.225,2.453l2.453-2.225
		c0.404,0.302,0.959,0.302,1.365,0l2.451,2.226L273.587,85.77z"/>
	<path opacity="0.74" fill="#FFFFFF" d="M248.933,30.726c-0.122-0.86-0.796-1.536-1.658-1.658L247,23.378l-0.279,5.689
		c-0.862,0.121-1.54,0.798-1.663,1.659L239.37,31l5.688,0.277c0.123,0.864,0.799,1.542,1.66,1.663l0.277,5.688l0.277-5.688
		c0.859-0.122,1.536-0.797,1.659-1.66l5.688-0.275L248.933,30.726z"/>
	<path opacity="0.74" fill="#FFFFFF" d="M67.841,62.356c-0.155-1.258-1.118-2.263-2.372-2.464l-0.24-8.306l-0.567,8.288
		c-1.261,0.153-2.268,1.12-2.471,2.372l-8.302,0.24l8.288,0.564c0.155,1.262,1.12,2.27,2.373,2.472l0.244,8.302l0.565-8.286
		c1.256-0.152,2.262-1.12,2.465-2.374l8.302-0.239L67.841,62.356z"/>
</g>
<g id="birds_1_">
	<g opacity="0.2">
		<path fill-rule="evenodd" clip-rule="evenodd" fill="#4A3628" d="M278.004,163.363c-3.706-0.253-5.461-1.52-8.529-2.127
			c-3.467-0.678-6.226,0.83-8.178,1.628c-0.438-0.6-1.062-0.977-1.751-0.979c-0.673-0.005-1.281,0.337-1.72,0.899
			c-1.96-0.809-4.775-2.498-8.371-1.857c-3.074,0.546-4.846,1.779-8.552,1.967c-0.424,0.02-0.777,0.026-0.777,0.026
			s0.354,0.076,0.777,0.161c1.32,0.213,2.54,0.304,3.983,0.237c1.523-0.06,2.982-0.309,4.557-0.223
			c1.84,0.11,3.099,0.651,4.075,1.144c1.566,0.789,2.736,1.66,4.034,2.506c0.624,0.265,2.325,0.81,4.133-0.07
			c1.166-0.744,2.268-1.506,3.691-2.197c0.981-0.475,2.248-0.99,4.087-1.072c1.574-0.054,3.033,0.223,4.55,0.311
			c1.45,0.09,2.67,0.015,3.99-0.172c0.424-0.067,0.777-0.139,0.777-0.139S278.428,163.395,278.004,163.363z"/>
		<path fill-rule="evenodd" clip-rule="evenodd" fill="#4A3628" d="M176.847,45.431c-1.137-0.222-2.042,0.272-2.683,0.535
			c-0.144-0.197-0.348-0.32-0.574-0.321c-0.222-0.002-0.421,0.111-0.565,0.295c-0.642-0.266-1.566-0.819-2.746-0.61
			c-1.009,0.18-1.59,0.584-2.805,0.646c-0.14,0.007-0.256,0.009-0.256,0.009s0.115,0.025,0.256,0.053
			c0.432,0.069,0.832,0.099,1.307,0.078c0.499-0.02,0.979-0.102,1.494-0.073c0.604,0.036,1.018,0.214,1.338,0.375
			c0.514,0.259,0.897,0.546,1.322,0.823c0.205,0.087,0.764,0.266,1.357-0.023c0.383-0.245,0.744-0.494,1.211-0.721
			c0.322-0.156,0.737-0.326,1.341-0.353c0.517-0.018,0.995,0.073,1.493,0.102c0.476,0.029,0.875,0.005,1.309-0.057
			c0.141-0.022,0.256-0.046,0.256-0.046s-0.117-0.003-0.256-0.013C178.431,46.045,177.854,45.63,176.847,45.431z"/>
		<path fill-rule="evenodd" clip-rule="evenodd" fill="#4A3628" d="M156.645,72.795c-2.14-0.418-3.845,0.514-5.051,1.008
			c-0.271-0.371-0.655-0.604-1.081-0.605c-0.416-0.003-0.792,0.209-1.063,0.555c-1.209-0.5-2.95-1.542-5.169-1.148
			c-1.9,0.338-2.992,1.101-5.281,1.217c-0.262,0.013-0.479,0.016-0.479,0.016s0.217,0.047,0.479,0.101
			c0.814,0.131,1.569,0.187,2.46,0.146c0.941-0.037,1.843-0.191,2.814-0.139c1.136,0.068,1.914,0.404,2.518,0.707
			c0.965,0.487,1.688,1.027,2.489,1.549c0.385,0.162,1.436,0.5,2.554-0.043c0.72-0.461,1.399-0.93,2.279-1.357
			c0.605-0.293,1.388-0.613,2.523-0.663c0.972-0.032,1.874,0.136,2.812,0.192c0.895,0.055,1.648,0.01,2.463-0.106
			c0.263-0.042,0.48-0.086,0.48-0.086s-0.22-0.008-0.48-0.026C159.624,73.954,158.54,73.172,156.645,72.795z"/>
	</g>
	<g id="birds">
		<path fill-rule="evenodd" clip-rule="evenodd" fill="#262732" d="M272.052,163.363c-3.706-0.252-5.461-1.52-8.529-2.127
			c-3.467-0.678-6.226,0.83-8.178,1.629c-0.438-0.6-1.062-0.977-1.751-0.979c-0.673-0.006-1.281,0.336-1.72,0.898
			c-1.96-0.809-4.775-2.498-8.371-1.857c-3.074,0.547-4.846,1.779-8.552,1.967c-0.424,0.02-0.777,0.027-0.777,0.027
			s0.354,0.076,0.777,0.16c1.32,0.213,2.54,0.305,3.983,0.238c1.523-0.061,2.982-0.309,4.557-0.223
			c1.84,0.109,3.099,0.65,4.075,1.143c1.566,0.789,2.736,1.66,4.034,2.506c0.624,0.266,2.325,0.811,4.133-0.07
			c1.166-0.744,2.268-1.506,3.691-2.197c0.981-0.475,2.248-0.99,4.087-1.072c1.574-0.053,3.033,0.223,4.55,0.311
			c1.45,0.09,2.67,0.016,3.99-0.172c0.424-0.066,0.777-0.139,0.777-0.139S272.476,163.395,272.052,163.363z"/>
		<path fill-rule="evenodd" clip-rule="evenodd" fill="#262732" d="M173.698,46.129c-1.215-0.083-1.791-0.499-2.799-0.698
			c-1.137-0.222-2.042,0.272-2.683,0.535c-0.144-0.197-0.348-0.32-0.574-0.321c-0.222-0.002-0.421,0.111-0.565,0.295
			c-0.642-0.266-1.566-0.819-2.746-0.61c-1.009,0.18-1.59,0.584-2.805,0.646c-0.14,0.007-0.256,0.009-0.256,0.009
			s0.115,0.025,0.256,0.053c0.432,0.069,0.832,0.099,1.307,0.078c0.499-0.02,0.979-0.102,1.494-0.073
			c0.604,0.036,1.018,0.214,1.338,0.375c0.514,0.259,0.897,0.546,1.322,0.823c0.205,0.087,0.764,0.266,1.357-0.023
			c0.383-0.245,0.744-0.494,1.211-0.721c0.322-0.156,0.737-0.326,1.341-0.353c0.517-0.018,0.995,0.073,1.493,0.102
			c0.476,0.029,0.875,0.005,1.309-0.057c0.141-0.022,0.256-0.046,0.256-0.046S173.837,46.139,173.698,46.129z"/>
		<path fill-rule="evenodd" clip-rule="evenodd" fill="#262732" d="M155.964,74.11c-2.287-0.156-3.371-0.938-5.267-1.314
			c-2.14-0.418-3.845,0.514-5.051,1.008c-0.271-0.371-0.655-0.604-1.081-0.605c-0.416-0.003-0.792,0.209-1.063,0.555
			c-1.209-0.5-2.95-1.542-5.169-1.148c-1.9,0.338-2.992,1.101-5.281,1.217c-0.262,0.013-0.479,0.016-0.479,0.016
			s0.217,0.047,0.479,0.101c0.814,0.131,1.569,0.187,2.46,0.146c0.941-0.037,1.843-0.191,2.814-0.139
			c1.136,0.068,1.914,0.404,2.518,0.707c0.965,0.487,1.688,1.027,2.489,1.549c0.385,0.162,1.436,0.5,2.554-0.043
			c0.72-0.461,1.399-0.93,2.279-1.357c0.605-0.293,1.388-0.613,2.523-0.663c0.972-0.032,1.874,0.136,2.812,0.192
			c0.895,0.055,1.648,0.01,2.463-0.106c0.263-0.042,0.48-0.086,0.48-0.086S156.225,74.128,155.964,74.11z"/>
	</g>
</g>
<g id="witch">
	<path opacity="0.6" fill="#CCCCCC" d="M213.515,76.898l-5.587-0.053c0-1.088-0.735-1.397-1.595-2.032l0,0
		c-1.94-1.94-1.375-6.384-1.375-6.384c0.83,0.038,1.966-0.19,2.219-1.25c0,0.006-0.002,0.013-0.002,0.02l0.021-0.087
		c-0.002,0.004-0.003,0.009-0.005,0.014c0.001-0.003,0.001-0.006,0.002-0.009c0.009-0.046,0.021-0.084,0.032-0.121l-0.029,0.116
		c0.04-0.072,0.118-0.104,0.118-0.104h2.461c0-2.582-1.67-3.478-1.67-3.478l-0.047-0.229c0-0.959-0.078-1.565-0.182-1.951h3.245
		c0.723,0,1.309-0.586,1.309-1.309s-0.586-1.309-1.309-1.309h-4.053c0-10.036-10.455-12.283-10.455-12.283
		c3.579,3.579,5.189,8.542,4.369,12.283h-3.745c-0.723,0-1.31,0.586-1.31,1.309c0,0.553,0.344,1.024,0.827,1.217
		c0,0-0.024,0.018-0.07,0.05c-0.066,0.048-0.136,0.099-0.204,0.152c-0.648,0.494-2.22,1.796-2.22,2.796c0.584,0,1.87,0,2.389,0
		c-0.104,0.092-0.209,0.196-0.313,0.314c-0.71,0.559-2.075,1.753-2.075,2.685c0.511,0,1.554,0,2.157,0
		c0.033,0.009,0.065,0.019,0.1,0.029c-1.193,0.854-2.622,2.285-3.813,4.657c-0.925,1.837-1.135,3.561-1.023,5.017l-3.254,0.008
		l0.006-0.736c0-0.062-0.014-0.122-0.038-0.178V75.62l-3.19,0.579c-1.912-1.729-5.485-2.358-7.505-2.581l0,0
		c0,0-1.886-0.312-3.239-0.025v8.758c0,0,0.625,0.076,1.556,0.066c0.042,0.006,0.081,0.01,0.124,0.011
		c0.009-0.001,0.018-0.001,0.025-0.001c0.035-0.002,0.172-0.009,0.385-0.024c0.497-0.022,1.05-0.07,1.625-0.164
		c2.146-0.271,5.443-0.914,7.002-2.375l3.218,0.569v-0.465c0.005-0.028,0.011-0.058,0.011-0.087l0.006-0.744l3.691-0.008
		c0.023,0.071,0.047,0.143,0.069,0.211c0.634,1.865,1.616,3.019,1.658,3.067c0.032,0.037,0.071,0.069,0.114,0.094
		c0.042,0.024,0.087,0.042,0.135,0.05c0.808,0.163,1.575,0.276,2.309,0.352c0.83,0.1,1.818,0.183,2.874,0.199l0.001,5.035
		l1.138-0.01l0.396-0.719l0.553,0.667L206.953,88l-5.835-2.147l1.557-2.973c1.262-0.204,2.494-0.566,3.556-1.163
		c0.958-0.455,1.483-0.995,1.75-1.396c-0.389-0.221-1.333-1.218-1.333-1.218l6.851-0.035c0.599,0.005,1.09-0.478,1.094-1.077
		C214.596,77.393,214.112,76.903,213.515,76.898z"/>
	<path fill="#262732" d="M209.833,76.898l-5.587-0.053c0-1.088-0.735-1.397-1.595-2.032l0,0c-1.94-1.94-1.375-6.384-1.375-6.384
		c0.83,0.038,1.966-0.19,2.219-1.25c0,0.006-0.002,0.013-0.002,0.02l0.021-0.087c-0.002,0.004-0.003,0.009-0.005,0.014
		c0.001-0.003,0.001-0.006,0.002-0.009c0.009-0.046,0.021-0.084,0.032-0.121l-0.029,0.116c0.04-0.072,0.118-0.104,0.118-0.104h2.461
		c0-2.582-1.67-3.478-1.67-3.478l-0.047-0.229c0-0.959-0.078-1.565-0.182-1.951h3.245c0.723,0,1.309-0.586,1.309-1.309
		s-0.586-1.309-1.309-1.309h-4.053c0-10.036-10.455-12.283-10.455-12.283c3.579,3.579,5.189,8.542,4.369,12.283h-3.745
		c-0.723,0-1.31,0.586-1.31,1.309c0,0.553,0.344,1.024,0.827,1.217c0,0-0.024,0.018-0.07,0.05c-0.066,0.048-0.136,0.099-0.204,0.152
		c-0.648,0.494-2.22,1.796-2.22,2.796c0.584,0,1.87,0,2.389,0c-0.104,0.092-0.209,0.196-0.313,0.314
		c-0.71,0.559-2.075,1.753-2.075,2.685c0.511,0,1.554,0,2.157,0c0.033,0.009,0.065,0.019,0.1,0.029
		c-1.193,0.854-2.622,2.285-3.813,4.657c-0.925,1.837-1.135,3.561-1.023,5.017l-3.254,0.008l0.006-0.736
		c0-0.062-0.014-0.122-0.038-0.178V75.62l-3.19,0.579c-1.912-1.729-5.485-2.358-7.505-2.581l0,0c0,0-1.886-0.312-3.239-0.025v8.758
		c0,0,0.625,0.076,1.556,0.066c0.042,0.006,0.081,0.01,0.124,0.011c0.009-0.001,0.018-0.001,0.025-0.001
		c0.035-0.002,0.172-0.009,0.385-0.024c0.497-0.022,1.05-0.07,1.625-0.164c2.146-0.271,5.443-0.914,7.002-2.375l3.218,0.569v-0.465
		c0.005-0.028,0.011-0.058,0.011-0.087l0.006-0.744l3.691-0.008c0.023,0.071,0.047,0.143,0.069,0.211
		c0.634,1.865,1.616,3.019,1.658,3.067c0.032,0.037,0.071,0.069,0.114,0.094c0.042,0.024,0.087,0.042,0.135,0.05
		c0.808,0.163,1.575,0.276,2.309,0.352c0.83,0.1,1.818,0.183,2.874,0.199l0.001,5.035l1.138-0.01l0.396-0.719l0.553,0.667
		L203.271,88l-5.835-2.147l1.557-2.973c1.262-0.204,2.494-0.566,3.556-1.163c0.958-0.455,1.483-0.995,1.75-1.396
		c-0.389-0.221-1.333-1.218-1.333-1.218l6.851-0.035c0.599,0.005,1.09-0.478,1.094-1.077
		C210.914,77.393,210.431,76.903,209.833,76.898z"/>
</g>
</svg>
